<svg xmlns="http://www.w3.org/2000/svg" viewBox="0 0 30.46 36.75"><defs><style>.cls-1,.cls-3{fill:#ccc;}.cls-2{fill:#fff;}.cls-3{stroke:#fff;stroke-miterlimit:10;}</style></defs><title>日历</title><g id="图层_2" data-name="图层 2"><g id="图层_1-2" data-name="图层 1"><path class="cls-1" d="M2,7.51H28.46a2,2,0,0,1,2,2v7.75a0,0,0,0,1,0,0H0a0,0,0,0,1,0,0V9.51A2,2,0,0,1,2,7.51Z"/><path class="cls-1" d="M2,18.47H28.46a2,2,0,0,1,2,2V36.75a0,0,0,0,1,0,0H0a0,0,0,0,1,0,0V20.47A2,2,0,0,1,2,18.47Z" transform="translate(30.46 55.22) rotate(-180)"/><rect class="cls-2" x="4.87" y="22.13" width="3.52" height="3.52"/><rect class="cls-2" x="4.87" y="28.63" width="3.52" height="3.52"/><rect class="cls-2" x="13.47" y="28.63" width="3.52" height="3.52"/><rect class="cls-2" x="22.07" y="28.63" width="3.52" height="3.52"/><rect class="cls-2" x="13.47" y="22.13" width="3.52" height="3.52"/><rect class="cls-2" x="22.07" y="22.13" width="3.52" height="3.52"/><rect class="cls-3" x="7.31" y="0.5" width="2.44" height="12.18"/><rect class="cls-3" x="20.11" y="0.5" width="2.44" height="12.18"/></g></g></svg>