<svg xmlns="http://www.w3.org/2000/svg" xmlns:xlink="http://www.w3.org/1999/xlink" viewBox="0 0 44.91 45.75"><defs><style>.cls-1,.cls-11,.cls-12{fill:none;stroke-linecap:round;stroke-miterlimit:10;}.cls-1{stroke:#000333;}.cls-2{fill:#b3b3b3;}.cls-3{fill:url(#未命名的渐变_4);}.cls-4{fill:#ffe443;}.cls-5{fill:url(#未命名的渐变_4-2);}.cls-6{fill:url(#未命名的渐变_4-3);}.cls-7{fill:url(#未命名的渐变_4-4);}.cls-8{fill:url(#未命名的渐变_4-5);}.cls-9{fill:url(#未命名的渐变_4-6);}.cls-10{fill:url(#未命名的渐变_4-7);}.cls-11,.cls-12{stroke-width:0.5px;}.cls-11{stroke:url(#未命名的渐变_4-8);}.cls-12{stroke:#fff;}</style><linearGradient id="未命名的渐变_4" x1="1.81" y1="23.89" x2="43" y2="23.89" gradientUnits="userSpaceOnUse"><stop offset="0" stop-color="#ff7031"/><stop offset="1" stop-color="#f99450"/></linearGradient><linearGradient id="未命名的渐变_4-2" x1="33.5" y1="2.5" x2="40.5" y2="2.5" xlink:href="#未命名的渐变_4"/><linearGradient id="未命名的渐变_4-3" x1="36.5" y1="3" x2="37.5" y2="3" xlink:href="#未命名的渐变_4"/><linearGradient id="未命名的渐变_4-4" x1="-102.29" y1="206.37" x2="-100.11" y2="206.37" gradientTransform="translate(239.47 110.08) rotate(90)" xlink:href="#未命名的渐变_4"/><linearGradient id="未命名的渐变_4-5" x1="-101.35" y1="206.52" x2="-101.04" y2="206.52" gradientTransform="translate(239.52 110.2) rotate(90)" xlink:href="#未命名的渐变_4"/><linearGradient id="未命名的渐变_4-6" x1="-99.08" y1="193.73" x2="-96.89" y2="193.73" gradientTransform="translate(237.84 99.87) rotate(90)" xlink:href="#未命名的渐变_4"/><linearGradient id="未命名的渐变_4-7" x1="-98.14" y1="193.89" x2="-97.83" y2="193.89" gradientTransform="translate(237.89 99.98) rotate(90)" xlink:href="#未命名的渐变_4"/><linearGradient id="未命名的渐变_4-8" x1="2.75" y1="44" x2="6.25" y2="44" xlink:href="#未命名的渐变_4"/></defs><title>亲子中心_选中</title><g id="图层_2" data-name="图层 2"><g id="图层_1-2" data-name="图层 1"><path class="cls-1" d="M27.21,9.23h0a25.53,25.53,0,0,0-3-.51"/><path class="cls-1" d="M20.5,8.43A29.15,29.15,0,0,1,15.26,8a8.73,8.73,0,0,1-5.19-4.15A1.78,1.78,0,0,0,8,2.75c-1.65.44-2.4,3.4-2.42,6.14a16.38,16.38,0,0,0,1.45,6.85,1,1,0,0,0-.29.26A16.45,16.45,0,0,0,3.5,25.88q0,1,.07,1.9a4.46,4.46,0,0,0-1.12,7.93,4.29,4.29,0,0,0,2.4.74,4.34,4.34,0,0,0,.85-.08,1,1,0,0,0,.36-.15,15.21,15.21,0,0,0,2.39,3.07,16.36,16.36,0,0,0,6.18,3.79,22,22,0,0,0,7.28,1.17h.28c7.86-.08,13.21-2.74,16-7.92a1,1,0,0,0,.23.07,4.35,4.35,0,0,0,.71.06,4.29,4.29,0,0,0,2.51-.82,4.46,4.46,0,0,0-1.21-7.85h0q.07-1.1.07-2.27A16.17,16.17,0,0,0,35.59,14a18.58,18.58,0,0,0-6-4"/><path class="cls-2" d="M40.13,31.46"/><path class="cls-3" d="M40.07,28q.07-1.05.07-2.17a15.49,15.49,0,0,0-4.72-11,18.07,18.07,0,0,0-8-4.55h0c-4.24-1-9.5-.62-11.41-1.2a8.36,8.36,0,0,1-5-4A1.7,1.7,0,0,0,9,4C7.44,4.47,6.72,7.3,6.7,9.93a15.69,15.69,0,0,0,1.39,6.56.91.91,0,0,0-.28.25A15.75,15.75,0,0,0,4.68,26.2q0,.93.07,1.82a4.27,4.27,0,0,0-1.07,7.59,4.11,4.11,0,0,0,2.3.71,4.16,4.16,0,0,0,.81-.08.92.92,0,0,0,.35-.15A14.57,14.57,0,0,0,9.42,39a15.67,15.67,0,0,0,5.92,3.63,21.06,21.06,0,0,0,7,1.12h.26c7.53-.08,12.65-2.62,15.35-7.58a.93.93,0,0,0,.22.07,4.17,4.17,0,0,0,.68.06,4.11,4.11,0,0,0,2.41-.78A4.28,4.28,0,0,0,40.07,28ZM4.71,34.09a2.39,2.39,0,0,1-1-1.55A2.43,2.43,0,0,1,5,29.91,18.37,18.37,0,0,0,6.3,34.46,2.27,2.27,0,0,1,4.71,34.09Zm36.42-1.63a2.4,2.4,0,0,1-1,1.58,2.28,2.28,0,0,1-1.44.43,20,20,0,0,0,1.16-4.55A2.43,2.43,0,0,1,41.13,32.46Z"/><path class="cls-4" d="M15.29,28.84a3.52,3.52,0,0,0-3.49,3.55.92.92,0,0,0,1.84,0,1.66,1.66,0,1,1,3.31,0,.92.92,0,1,0,1.84,0,3.52,3.52,0,0,0-3.49-3.55Zm0,0"/><path class="cls-4" d="M30.2,28.84a3.52,3.52,0,0,0-3.49,3.55.92.92,0,0,0,1.84,0,1.66,1.66,0,1,1,3.31,0,.92.92,0,1,0,1.84,0,3.52,3.52,0,0,0-3.49-3.55Zm0,0"/><ellipse class="cls-5" cx="37" cy="2.5" rx="3.5" ry="0.5"/><ellipse class="cls-6" cx="37" cy="3" rx="0.5" ry="3"/><ellipse class="cls-7" cx="33.11" cy="8.89" rx="0.16" ry="1.09" transform="translate(3.95 26.91) rotate(-46.75)"/><ellipse class="cls-8" cx="33" cy="9" rx="0.94" ry="0.16" transform="translate(3.83 26.87) rotate(-46.75)"/><ellipse class="cls-9" cx="44.11" cy="1.89" rx="0.16" ry="1.09" transform="translate(12.51 32.72) rotate(-46.75)"/><ellipse class="cls-10" cx="44" cy="2" rx="0.94" ry="0.16" transform="translate(12.39 32.68) rotate(-46.75)"/><circle class="cls-11" cx="4.5" cy="44" r="1.5"/><path class="cls-12" d="M23,11.5s4,0,6,2"/><path class="cls-12" d="M30,14.5a3.7,3.7,0,0,1,2,3"/></g></g></svg>