<svg xmlns="http://www.w3.org/2000/svg" viewBox="0 0 41.22 39.84"><defs><style>.cls-1{fill:none;}.cls-2{fill:#b3b3b3;}</style></defs><title>亲子中心_默认</title><g id="图层_2" data-name="图层 2"><g id="图层_1-2" data-name="图层 1"><rect class="cls-1" width="41.22" height="39.84"/><path class="cls-2" d="M38.26,24q.07-1.05.07-2.17a15.49,15.49,0,0,0-4.72-11,18.07,18.07,0,0,0-8-4.55h0c-4.24-1-9.5-.62-11.41-1.2a8.36,8.36,0,0,1-5-4,1.7,1.7,0,0,0-2-1C5.63.47,4.9,3.31,4.89,5.93a15.68,15.68,0,0,0,1.39,6.56.91.91,0,0,0-.28.25,15.75,15.75,0,0,0-3.13,9.47q0,.93.07,1.82a4.27,4.27,0,0,0-1.07,7.59,4.11,4.11,0,0,0,2.3.71A4.16,4.16,0,0,0,5,32.25a.92.92,0,0,0,.35-.15A14.57,14.57,0,0,0,7.61,35a15.67,15.67,0,0,0,5.92,3.63,21.06,21.06,0,0,0,7,1.12h.26c7.53-.08,12.65-2.62,15.35-7.58a.93.93,0,0,0,.22.07,4.17,4.17,0,0,0,.68.06,4.11,4.11,0,0,0,2.41-.78A4.28,4.28,0,0,0,38.26,24ZM7,3.68A4.92,4.92,0,0,1,7.57,2h0c3.21,5.5,8.62,5.47,12.19,5.45A48.46,48.46,0,0,1,25,8a7.21,7.21,0,0,1,3.77,3.29,5.1,5.1,0,0,1,.28,4,6.15,6.15,0,0,1-3.8,3.64,13.76,13.76,0,0,1-8.5-.08C9.19,16.72,7.31,11.14,6.87,8A12.88,12.88,0,0,1,7,3.68ZM2.9,30.1a2.39,2.39,0,0,1-1-1.55,2.43,2.43,0,0,1,1.28-2.63,18.37,18.37,0,0,0,1.33,4.55A2.27,2.27,0,0,1,2.9,30.1ZM32,34.51c-2.56,2.23-6.33,3.39-11.22,3.44s-9-1.41-11.84-4.22-4.2-6.63-4.2-11.52a13.93,13.93,0,0,1,2.5-8,15.09,15.09,0,0,0,9,6.4,19.49,19.49,0,0,0,5.24.78,12.37,12.37,0,0,0,4.4-.75,8,8,0,0,0,4.88-4.76,6.92,6.92,0,0,0-.34-5.35,15.44,15.44,0,0,1,1.89,1.59,13.66,13.66,0,0,1,4.17,9.74c0,5.78-1.52,10-4.53,12.66Zm7.35-6a2.4,2.4,0,0,1-1,1.58,2.28,2.28,0,0,1-1.44.43,20,20,0,0,0,1.16-4.55,2.43,2.43,0,0,1,1.25,2.54Zm0,0"/><path class="cls-2" d="M13.48,24.84A3.52,3.52,0,0,0,10,28.39a.92.92,0,0,0,1.84,0,1.66,1.66,0,1,1,3.31,0,.92.92,0,1,0,1.84,0,3.52,3.52,0,0,0-3.49-3.55Zm0,0"/><path class="cls-2" d="M28.38,24.84a3.52,3.52,0,0,0-3.49,3.55.92.92,0,1,0,1.84,0,1.66,1.66,0,1,1,3.31,0,.92.92,0,1,0,1.84,0,3.52,3.52,0,0,0-3.49-3.55Zm0,0"/></g></g></svg>