<svg xmlns="http://www.w3.org/2000/svg" viewBox="0 0 31.59 40.88"><defs><style>.cls-1,.cls-3{fill:none;stroke:#b3b3b3;stroke-miterlimit:10;}.cls-2{fill:#b3b3b3;}.cls-3{stroke-width:2px;}</style></defs><title>消息中心_默认</title><g id="图层_2" data-name="图层 2"><g id="图层_1-2" data-name="图层 1"><path class="cls-1" d="M20.63,25.7a4.93,4.93,0,0,1-9.66,0Z"/><path class="cls-2" d="M16.1,7.25h.38A10.7,10.7,0,0,1,26.56,18v6.87a2.88,2.88,0,0,0,1.7,2.62,2.26,2.26,0,0,1,1.32,2.29,2.36,2.36,0,0,1-2.4,2H4.4A2.35,2.35,0,0,1,2,29.75a2.26,2.26,0,0,1,1.63-2.36,2.76,2.76,0,0,0,2-2.65V19.42l.15-3.52A10.41,10.41,0,0,1,16.1,7.25m0-2A12.46,12.46,0,0,0,3.81,15.7l-.16,3.68v5.36a.75.75,0,0,1-.55.73A4.25,4.25,0,0,0,0,29.91a4.35,4.35,0,0,0,4.39,3.9H27.18A4.36,4.36,0,0,0,31.57,30a4.25,4.25,0,0,0-2.5-4.3.87.87,0,0,1-.52-.8V18a12.65,12.65,0,0,0-12-12.75Z"/><path class="cls-3" d="M21.87,33.81a6.08,6.08,0,0,1-12.15,0"/><path class="cls-3" d="M13,5.25a3,3,0,1,1,5.58,0"/><circle class="cls-2" cx="11.22" cy="13.79" r="2.01"/><circle class="cls-2" cx="20.37" cy="13.79" r="2.01"/></g></g></svg>