<svg xmlns="http://www.w3.org/2000/svg" xmlns:xlink="http://www.w3.org/1999/xlink" viewBox="0 0 33.77 45.5"><defs><style>.cls-1{fill:url(#未命名的渐变_4);}.cls-2{fill:url(#未命名的渐变_4-2);}.cls-3{fill:url(#未命名的渐变_4-3);}.cls-4{fill:url(#未命名的渐变_4-4);}.cls-5{fill:url(#未命名的渐变_4-5);}.cls-6{fill:url(#未命名的渐变_4-6);}.cls-7{fill:#ff7031;}.cls-8{fill:url(#未命名的渐变_4-7);}.cls-9{fill:url(#未命名的渐变_4-8);}.cls-10{fill:none;stroke:#333;stroke-linecap:round;stroke-miterlimit:10;}.cls-11{fill:#ffe443;}.cls-12{fill:#333;}</style><linearGradient id="未命名的渐变_4" x1="6.42" y1="2.5" x2="13.42" y2="2.5" gradientUnits="userSpaceOnUse"><stop offset="0" stop-color="#ff7031"/><stop offset="1" stop-color="#f99450"/></linearGradient><linearGradient id="未命名的渐变_4-2" x1="9.42" y1="3" x2="10.42" y2="3" xlink:href="#未命名的渐变_4"/><linearGradient id="未命名的渐变_4-3" x1="-175.56" y1="89.88" x2="-173.37" y2="89.88" gradientTransform="translate(95.9 183.35) rotate(90)" xlink:href="#未命名的渐变_4"/><linearGradient id="未命名的渐变_4-4" x1="-174.62" y1="90.03" x2="-174.31" y2="90.03" gradientTransform="translate(95.95 183.46) rotate(90)" xlink:href="#未命名的渐变_4"/><linearGradient id="未命名的渐变_4-5" x1="-172.34" y1="77.24" x2="-170.16" y2="77.24" gradientTransform="translate(94.27 173.14) rotate(90)" xlink:href="#未命名的渐变_4"/><linearGradient id="未命名的渐变_4-6" x1="-171.4" y1="77.4" x2="-171.09" y2="77.4" gradientTransform="translate(94.32 173.25) rotate(90)" xlink:href="#未命名的渐变_4"/><linearGradient id="未命名的渐变_4-7" x1="15.29" y1="9.15" x2="21.45" y2="9.15" xlink:href="#未命名的渐变_4"/><linearGradient id="未命名的渐变_4-8" x1="1.73" y1="24.24" x2="33.77" y2="24.24" xlink:href="#未命名的渐变_4"/></defs><title>消息中心_选中</title><g id="图层_2" data-name="图层 2"><g id="图层_1-2" data-name="图层 1"><ellipse class="cls-1" cx="9.92" cy="2.5" rx="3.5" ry="0.5"/><ellipse class="cls-2" cx="9.92" cy="3" rx="0.5" ry="3"/><ellipse class="cls-3" cx="6.03" cy="8.89" rx="0.16" ry="1.09" transform="translate(-4.58 7.19) rotate(-46.75)"/><ellipse class="cls-4" cx="5.92" cy="9" rx="0.94" ry="0.16" transform="translate(-4.69 7.14) rotate(-46.75)"/><ellipse class="cls-5" cx="17.03" cy="1.89" rx="0.16" ry="1.09" transform="translate(3.99 12.99) rotate(-46.75)"/><ellipse class="cls-6" cx="16.92" cy="2" rx="0.94" ry="0.16" transform="translate(3.87 12.95) rotate(-46.75)"/><circle class="cls-7" cx="17.75" cy="39.34" r="6.16"/><circle class="cls-8" cx="18.37" cy="9.15" r="3.08"/><path class="cls-9" d="M30.69,29.66v-7A12.83,12.83,0,0,0,18.52,9.77,12.63,12.63,0,0,0,5.43,22.39v7.13a.77.77,0,0,1-.55.74,4.31,4.31,0,0,0-3.13,4.51,4.42,4.42,0,0,0,4.45,4H29.3a4.42,4.42,0,0,0,4.46-3.89,4.31,4.31,0,0,0-2.53-4.36A.89.89,0,0,1,30.69,29.66Z"/><path class="cls-10" d="M4.2,24.09v5.44a.77.77,0,0,1-.55.74A4.31,4.31,0,0,0,.51,34.77a4.42,4.42,0,0,0,4.45,4h23.1a4.42,4.42,0,0,0,4.46-3.89A4.31,4.31,0,0,0,30,30.47a.89.89,0,0,1-.53-.81v-7A12.83,12.83,0,0,0,17.29,9.77,12.63,12.63,0,0,0,4.36,20.35"/><path class="cls-10" d="M22.68,38.72a6.16,6.16,0,1,1-12.32,0"/><path class="cls-10" d="M13.7,9.76a3.08,3.08,0,1,1,5.66,0"/><circle cx="13.06" cy="18.42" r="2.04"/><circle cx="22.34" cy="18.42" r="2.04"/><path class="cls-11" d="M17.42,33.5a7.49,7.49,0,0,1-7.27-5.65,1.05,1.05,0,0,1,.2-.91,1.13,1.13,0,0,1,.9-.44H23.59a1.13,1.13,0,0,1,.9.44,1.05,1.05,0,0,1,.2.91A7.49,7.49,0,0,1,17.42,33.5Z"/><path class="cls-12" d="M23.59,27a.63.63,0,0,1,.5.25.55.55,0,0,1,.11.48,7,7,0,0,1-13.57,0,.55.55,0,0,1,.11-.48.63.63,0,0,1,.5-.25H23.59m0-1H11.24a1.61,1.61,0,0,0-1.58,2,8,8,0,0,0,15.51,0,1.61,1.61,0,0,0-1.58-2Z"/></g></g></svg>