<svg xmlns="http://www.w3.org/2000/svg" xmlns:xlink="http://www.w3.org/1999/xlink" viewBox="0 0 39.77 43.69"><defs><style>.cls-1{fill:url(#未命名的渐变_4);}.cls-2,.cls-5{fill:none;stroke-linecap:round;stroke-miterlimit:10;}.cls-2{stroke:#333;}.cls-3{fill:#ffe443;}.cls-4{fill:#333;}.cls-5{stroke:#fff;}.cls-6{fill:url(#未命名的渐变_4-2);}.cls-7{fill:url(#未命名的渐变_4-3);}.cls-8{fill:url(#未命名的渐变_4-4);}.cls-9{fill:url(#未命名的渐变_4-5);}.cls-10{fill:url(#未命名的渐变_4-6);}.cls-11{fill:url(#未命名的渐变_4-7);}.cls-12{fill:url(#未命名的渐变_4-8);}.cls-13{fill:url(#未命名的渐变_4-9);}</style><linearGradient id="未命名的渐变_4" x1="2.21" y1="24.78" x2="39.77" y2="24.78" gradientUnits="userSpaceOnUse"><stop offset="0" stop-color="#ff7031"/><stop offset="1" stop-color="#f99450"/></linearGradient><linearGradient id="未命名的渐变_4-2" x1="-123.87" y1="135.55" x2="-121.68" y2="135.55" gradientTransform="translate(174.36 135.66) rotate(90)" xlink:href="#未命名的渐变_4"/><linearGradient id="未命名的渐变_4-3" x1="-122.93" y1="135.7" x2="-122.62" y2="135.7" gradientTransform="translate(174.41 135.77) rotate(90)" xlink:href="#未命名的渐变_4"/><linearGradient id="未命名的渐变_4-4" x1="1.21" y1="2.5" x2="8.21" y2="2.5" xlink:href="#未命名的渐变_4"/><linearGradient id="未命名的渐变_4-5" x1="4.21" y1="3" x2="5.21" y2="3" xlink:href="#未命名的渐变_4"/><linearGradient id="未命名的渐变_4-6" x1="-154.28" y1="158.67" x2="-152.1" y2="158.67" gradientTransform="translate(159.49 162.08) rotate(90)" xlink:href="#未命名的渐变_4"/><linearGradient id="未命名的渐变_4-7" x1="-153.35" y1="158.83" x2="-153.04" y2="158.83" gradientTransform="translate(159.54 162.19) rotate(90)" xlink:href="#未命名的渐变_4"/><linearGradient id="未命名的渐变_4-8" x1="-151.07" y1="146.04" x2="-148.88" y2="146.04" gradientTransform="translate(157.85 151.86) rotate(90)" xlink:href="#未命名的渐变_4"/><linearGradient id="未命名的渐变_4-9" x1="-150.13" y1="146.19" x2="-149.82" y2="146.19" gradientTransform="translate(157.9 151.98) rotate(90)" xlink:href="#未命名的渐变_4"/></defs><title>我的_选中</title><g id="图层_2" data-name="图层 2"><g id="图层_1-2" data-name="图层 1"><circle class="cls-1" cx="20.99" cy="24.78" r="18.78"/><path class="cls-2" d="M8.3,8.7A19.12,19.12,0,0,1,10,7.55"/><path class="cls-2" d="M12.31,6.44a19.11,19.11,0,1,1-7.87,6"/><circle cx="13.85" cy="19.42" r="2.04"/><circle cx="28.13" cy="19.42" r="2.04"/><path class="cls-3" d="M20.21,33.5a7.49,7.49,0,0,1-7.27-5.65,1.05,1.05,0,0,1,.2-.91,1.13,1.13,0,0,1,.9-.44H26.38a1.13,1.13,0,0,1,.9.44,1.05,1.05,0,0,1,.2.91A7.49,7.49,0,0,1,20.21,33.5Z"/><path class="cls-4" d="M26.38,27a.63.63,0,0,1,.5.25.55.55,0,0,1,.11.48,7,7,0,0,1-13.57,0,.55.55,0,0,1,.11-.48A.63.63,0,0,1,14,27H26.38m0-1H14a1.61,1.61,0,0,0-1.58,2A8,8,0,0,0,28,28a1.61,1.61,0,0,0-1.58-2Z"/><path class="cls-5" d="M34.71,26.5a7,7,0,0,1-3,7"/><path class="cls-5" d="M30.76,34.68a1.09,1.09,0,0,1-1,.62"/><ellipse class="cls-6" cx="38.82" cy="12.89" rx="0.16" ry="1.09" transform="translate(2.83 32.33) rotate(-46.75)"/><ellipse class="cls-7" cx="38.71" cy="13" rx="0.94" ry="0.16" transform="translate(2.72 32.28) rotate(-46.75)"/><ellipse class="cls-8" cx="4.71" cy="2.5" rx="3.5" ry="0.5"/><ellipse class="cls-9" cx="4.71" cy="3" rx="0.5" ry="3"/><ellipse class="cls-10" cx="0.82" cy="8.89" rx="0.16" ry="1.09" transform="translate(-6.22 3.39) rotate(-46.75)"/><ellipse class="cls-11" cx="0.71" cy="9" rx="0.94" ry="0.16" transform="translate(-6.33 3.35) rotate(-46.75)"/><ellipse class="cls-12" cx="11.82" cy="1.89" rx="0.16" ry="1.09" transform="translate(2.35 9.2) rotate(-46.75)"/><ellipse class="cls-13" cx="11.71" cy="2" rx="0.94" ry="0.16" transform="translate(2.23 9.16) rotate(-46.75)"/></g></g></svg>