<svg xmlns="http://www.w3.org/2000/svg" xmlns:xlink="http://www.w3.org/1999/xlink" viewBox="0 0 48.79 44.18"><defs><style>.cls-1{fill:url(#未命名的渐变_4);}.cls-2{fill:url(#未命名的渐变_4-2);}.cls-3{fill:#ffe443;}.cls-11,.cls-4,.cls-5{fill:none;stroke-linecap:round;stroke-miterlimit:10;}.cls-4{stroke:#333;}.cls-5{stroke-width:0.5px;stroke:url(#未命名的渐变_4-3);}.cls-6{fill:url(#未命名的渐变_4-4);}.cls-7{fill:url(#未命名的渐变_4-5);}.cls-8{fill:url(#未命名的渐变_4-6);}.cls-9{fill:url(#未命名的渐变_4-7);}.cls-10{fill:#333;}.cls-11{stroke:#fff;}</style><linearGradient id="未命名的渐变_4" x1="2.59" y1="28.25" x2="48.2" y2="28.25" gradientUnits="userSpaceOnUse"><stop offset="0" stop-color="#ff7031"/><stop offset="1" stop-color="#f99450"/></linearGradient><linearGradient id="未命名的渐变_4-2" x1="14.4" y1="9.47" x2="36.38" y2="9.47" xlink:href="#未命名的渐变_4"/><linearGradient id="未命名的渐变_4-3" x1="9.54" y1="1.75" x2="13.04" y2="1.75" xlink:href="#未命名的渐变_4"/><linearGradient id="未命名的渐变_4-4" x1="165.8" y1="-52.99" x2="168.8" y2="-52.99" gradientTransform="translate(-160.51 61.24)" xlink:href="#未命名的渐变_4"/><linearGradient id="未命名的渐变_4-5" x1="-130.95" y1="323.74" x2="-127.95" y2="323.74" gradientTransform="translate(136.24 -315.49)" xlink:href="#未命名的渐变_4"/><linearGradient id="未命名的渐变_4-6" x1="315.62" y1="1199.13" x2="318.62" y2="1199.13" gradientTransform="translate(-101.84 -443.52) scale(0.37)" xlink:href="#未命名的渐变_4"/><linearGradient id="未命名的渐变_4-7" x1="1121.17" y1="173.91" x2="1124.17" y2="173.91" gradientTransform="translate(-400.62 -63.26) scale(0.37)" xlink:href="#未命名的渐变_4"/></defs><title>微商城_选中</title><g id="图层_2" data-name="图层 2"><g id="图层_1-2" data-name="图层 1"><path class="cls-1" d="M37.06,43.75H13.73a3.2,3.2,0,0,1-3-2.22L2.74,16.94a3.2,3.2,0,0,1,3-4.19H45a3.2,3.2,0,0,1,3,4.19l-7.93,24.6A3.2,3.2,0,0,1,37.06,43.75Z"/><path class="cls-2" d="M16.24,14.2l-1.85-.77c2.23-5.35,6.47-8.68,11.05-8.68S34.13,8,36.38,13.16l-1.83.8c-1.94-4.44-5.42-7.21-9.1-7.21S18.16,9.6,16.24,14.2Z"/><line class="cls-3" x1="13.89" y1="21.75" x2="34.89" y2="21.75"/><path class="cls-4" d="M5.74,31.32,9,41.35a3.36,3.36,0,0,0,3.19,2.33H36.62a3.36,3.36,0,0,0,3.19-2.33l8.31-25.77a3.36,3.36,0,0,0-3.19-4.39H35.71C33.3,6,29,2.82,24.45,2.82S15.6,6,13.19,11.2H3.86A3.36,3.36,0,0,0,.66,15.59l1,3.12"/><line class="cls-4" x1="3.58" y1="24.63" x2="4.61" y2="27.81"/><circle class="cls-5" cx="11.29" cy="1.75" r="1.5"/><rect class="cls-6" x="5.29" y="7.95" width="3" height="0.6" rx="0.3" ry="0.3" transform="translate(-3.16 4.35) rotate(-29.15)"/><rect class="cls-7" x="5.29" y="7.95" width="3" height="0.6" rx="0.3" ry="0.3" transform="translate(10.69 -1.7) rotate(60.85)"/><rect class="cls-8" x="15.23" y="1.14" width="1.11" height="0.22" rx="0.11" ry="0.11" transform="translate(30.18 -5.35) rotate(150.85)"/><rect class="cls-9" x="15.23" y="1.14" width="1.11" height="0.22" rx="0.11" ry="0.11" transform="translate(22.39 15.65) rotate(-119.15)"/><path class="cls-3" d="M29.3,34.34a.37.37,0,0,1-.22-.07l-3.5-2.54a1.35,1.35,0,0,0-1.59,0l-3.22,2.34a.48.48,0,0,1-.29.1.51.51,0,0,1-.4-.21.47.47,0,0,1-.06-.43l1.23-3.78a1.35,1.35,0,0,0-.49-1.51l-3.25-2.36a.48.48,0,0,1,.28-.86h4a1.35,1.35,0,0,0,1.29-.94l1.59-4.91a.1.1,0,0,1,.2,0l1.59,4.91a1.35,1.35,0,0,0,1.29.94h4.16a.43.43,0,0,1,.25.78l-3.37,2.44a1.35,1.35,0,0,0-.49,1.51l1.34,4.11a.36.36,0,0,1,0,.33A.39.39,0,0,1,29.3,34.34Z"/><path class="cls-10" d="M24.79,19.66l1.46,4.48a1.6,1.6,0,0,0,1.53,1.11h4.16a.18.18,0,0,1,.11.32L28.67,28a1.6,1.6,0,0,0-.58,1.79l1.34,4.11a.11.11,0,0,1,0,.11.14.14,0,0,1-.11.06.12.12,0,0,1-.07,0l-3.5-2.54a1.6,1.6,0,0,0-1.89,0l-3.22,2.34a.23.23,0,0,1-.14,0,.26.26,0,0,1-.2-.11.22.22,0,0,1,0-.21l1.23-3.78A1.6,1.6,0,0,0,20.91,28l-3.25-2.36a.23.23,0,0,1,.13-.41h4a1.6,1.6,0,0,0,1.53-1.11l1.46-4.48m0-.83a.35.35,0,0,0-.34.24L22.86,24a1.1,1.1,0,0,1-1,.76h-4a.73.73,0,0,0-.43,1.32l3.25,2.36a1.1,1.1,0,0,1,.4,1.23l-1.23,3.78a.74.74,0,0,0,.71,1,.73.73,0,0,0,.43-.14l3.22-2.34a1.1,1.1,0,0,1,1.3,0l3.5,2.54a.62.62,0,0,0,.37.12.63.63,0,0,0,.6-.82l-1.34-4.11a1.1,1.1,0,0,1,.4-1.23L32.33,26a.68.68,0,0,0-.4-1.23H27.77a1.1,1.1,0,0,1-1-.76l-1.6-4.91a.35.35,0,0,0-.34-.24Z"/><line class="cls-11" x1="40.79" y1="29.25" x2="38.79" y2="35.25"/><line class="cls-11" x1="37.79" y1="37.25" x2="36.79" y2="40.25"/></g></g></svg>