<svg xmlns="http://www.w3.org/2000/svg" viewBox="0 0 53.49 54.11"><defs><style>.cls-1,.cls-3,.cls-5{fill:none;stroke-miterlimit:10;}.cls-1,.cls-5{stroke:#ccc;}.cls-1,.cls-3{stroke-linecap:round;}.cls-2{fill:#e1dddc;}.cls-3{stroke:#fff;}.cls-4{fill:#ccc;}</style></defs><title>其它_默认</title><g id="图层_2" data-name="图层 2"><g id="图层_1-2" data-name="图层 1"><line class="cls-1" x1="0.5" y1="2.44" x2="0.5" y2="0.5"/><rect class="cls-2" x="28.79" y="33.06" width="19.77" height="19.77" rx="2.94" ry="2.94"/><rect class="cls-2" x="1.79" y="6" width="20.77" height="20.77" rx="2.94" ry="2.94"/><line class="cls-3" x1="38.12" y1="35" x2="34.79" y2="35"/><path class="cls-3" d="M46.89,39.92v-2A2.94,2.94,0,0,0,44,35H42.29"/><path class="cls-1" d="M.5,8.65A2.94,2.94,0,0,1,3.44,5.71H18.9a2.94,2.94,0,0,1,2.94,2.94V24.12a2.94,2.94,0,0,1-2.94,2.94H3.44A2.94,2.94,0,0,1,.5,24.12V16.38"/><path class="cls-2" d="M39.62,29.76A2.42,2.42,0,0,1,37.9,29L27,18.11a2.44,2.44,0,0,1,0-3.45L37.9,3.73a2.44,2.44,0,0,1,3.45,0L52.28,14.66a2.44,2.44,0,0,1,0,3.45L41.35,29A2.42,2.42,0,0,1,39.62,29.76Z"/><path class="cls-4" d="M39.62,3.51A1.92,1.92,0,0,1,41,4.08L51.93,15a1.94,1.94,0,0,1,0,2.74L41,28.69a1.94,1.94,0,0,1-2.74,0L27.32,17.75a1.94,1.94,0,0,1,0-2.74L38.25,4.08a1.92,1.92,0,0,1,1.37-.57m0-1a2.93,2.93,0,0,0-2.08.86L26.61,14.31a2.94,2.94,0,0,0,0,4.15L37.54,29.4a2.94,2.94,0,0,0,4.15,0L52.63,18.46a2.94,2.94,0,0,0,0-4.15L41.7,3.37a2.93,2.93,0,0,0-2.08-.86Z"/><rect class="cls-2" x="1" y="32.77" width="20.34" height="20.34" rx="2.44" ry="2.44"/><path class="cls-4" d="M18.9,33.27a1.94,1.94,0,0,1,1.94,1.94V50.67a1.94,1.94,0,0,1-1.94,1.94H3.44A1.94,1.94,0,0,1,1.5,50.67V35.21a1.94,1.94,0,0,1,1.94-1.94H18.9m0-1H3.44A2.94,2.94,0,0,0,.5,35.21V50.67a2.94,2.94,0,0,0,2.94,2.94H18.9a2.94,2.94,0,0,0,2.94-2.94V35.21a2.94,2.94,0,0,0-2.94-2.94Z"/><path class="cls-5" d="M49.34,48.42v2.25a2.94,2.94,0,0,1-2.94,2.94H30.94A2.94,2.94,0,0,1,28,50.67V35.21a2.94,2.94,0,0,1,2.94-2.94H46.41a2.94,2.94,0,0,1,2.94,2.94v5.67"/><line class="cls-1" x1="49.34" y1="44.31" x2="49.34" y2="45.67"/></g></g></svg>