<svg xmlns="http://www.w3.org/2000/svg" xmlns:xlink="http://www.w3.org/1999/xlink" viewBox="0 0 53.49 60.11"><defs><style>.cls-1{fill:url(#未命名的渐变_4);}.cls-2{fill:url(#未命名的渐变_4-2);}.cls-3,.cls-4{fill:none;stroke-linecap:round;stroke-miterlimit:10;}.cls-3{stroke:#fff;}.cls-4{stroke:#000;}.cls-5{fill:url(#未命名的渐变_4-3);}.cls-6{fill:url(#未命名的渐变_4-4);}.cls-7{fill:#05b8e2;}.cls-8{fill:url(#未命名的渐变_4-5);}.cls-9{fill:url(#未命名的渐变_4-6);}.cls-10{fill:url(#未命名的渐变_4-7);}.cls-11{fill:url(#未命名的渐变_4-8);}.cls-12{fill:#ffe443;}.cls-13{fill:url(#未命名的渐变_4-9);}</style><linearGradient id="未命名的渐变_4" x1="28.79" y1="48.94" x2="48.56" y2="48.94" gradientUnits="userSpaceOnUse"><stop offset="0" stop-color="#ff7031"/><stop offset="1" stop-color="#f99450"/></linearGradient><linearGradient id="未命名的渐变_4-2" x1="1.79" y1="22.38" x2="22.55" y2="22.38" xlink:href="#未命名的渐变_4"/><linearGradient id="未命名的渐变_4-3" x1="26.25" y1="22.38" x2="52.99" y2="22.38" xlink:href="#未命名的渐变_4"/><linearGradient id="未命名的渐变_4-4" x1="1" y1="48.94" x2="21.34" y2="48.94" xlink:href="#未命名的渐变_4"/><linearGradient id="未命名的渐变_4-5" x1="12.75" y1="7.5" x2="15.36" y2="7.5" gradientTransform="translate(5.69 -6.06) rotate(30.23)" xlink:href="#未命名的渐变_4"/><linearGradient id="未命名的渐变_4-6" x1="13.26" y1="7.5" x2="14.86" y2="7.5" gradientTransform="translate(5.69 -6.06) rotate(30.23)" xlink:href="#未命名的渐变_4"/><linearGradient id="未命名的渐变_4-7" x1="23.64" y1="2.5" x2="26.48" y2="2.5" gradientTransform="translate(19.19 -21.99) rotate(70.83)" xlink:href="#未命名的渐变_4"/><linearGradient id="未命名的渐变_4-8" x1="24.49" y1="2.5" x2="25.63" y2="2.5" gradientTransform="translate(19.19 -21.99) rotate(70.83)" xlink:href="#未命名的渐变_4"/><linearGradient id="未命名的渐变_4-9" x1="37.56" y1="2" x2="41.56" y2="2" xlink:href="#未命名的渐变_4"/></defs><title>其它_选中</title><g id="图层_2" data-name="图层 2"><g id="图层_1-2" data-name="图层 1"><rect class="cls-1" x="28.79" y="39.06" width="19.77" height="19.77" rx="2.94" ry="2.94"/><rect class="cls-2" x="1.79" y="12" width="20.77" height="20.77" rx="2.94" ry="2.94"/><line class="cls-3" x1="11.56" y1="14" x2="14.89" y2="14"/><path class="cls-3" d="M2.79,18.92v-2A2.94,2.94,0,0,1,5.72,14H7.39"/><line class="cls-3" x1="38.12" y1="41" x2="34.79" y2="41"/><path class="cls-3" d="M46.89,45.92v-2A2.94,2.94,0,0,0,44,41H42.29"/><line class="cls-4" x1="0.5" y1="20.54" x2="0.5" y2="19"/><path class="cls-4" d="M.5,14.65a2.94,2.94,0,0,1,2.94-2.94H18.9a2.94,2.94,0,0,1,2.94,2.94V30.12a2.94,2.94,0,0,1-2.94,2.94H3.44A2.94,2.94,0,0,1,.5,30.12V23.63"/><path class="cls-5" d="M39.62,35.76A2.42,2.42,0,0,1,37.9,35L27,24.11a2.44,2.44,0,0,1,0-3.45L37.9,9.73a2.44,2.44,0,0,1,3.45,0L52.28,20.66a2.44,2.44,0,0,1,0,3.45L41.35,35A2.42,2.42,0,0,1,39.62,35.76Z"/><path d="M39.62,9.51a1.92,1.92,0,0,1,1.37.57L51.93,21a1.94,1.94,0,0,1,0,2.74L41,34.69a1.94,1.94,0,0,1-2.74,0L27.32,23.75a1.94,1.94,0,0,1,0-2.74L38.25,10.08a1.92,1.92,0,0,1,1.37-.57m0-1a2.93,2.93,0,0,0-2.08.86L26.61,20.31a2.94,2.94,0,0,0,0,4.15L37.54,35.4a2.94,2.94,0,0,0,4.15,0L52.63,24.46a2.94,2.94,0,0,0,0-4.15L41.7,9.37a2.93,2.93,0,0,0-2.08-.86Z"/><rect class="cls-6" x="1" y="38.77" width="20.34" height="20.34" rx="2.44" ry="2.44"/><path d="M18.9,39.27a1.94,1.94,0,0,1,1.94,1.94V56.67a1.94,1.94,0,0,1-1.94,1.94H3.44A1.94,1.94,0,0,1,1.5,56.67V41.21a1.94,1.94,0,0,1,1.94-1.94H18.9m0-1H3.44A2.94,2.94,0,0,0,.5,41.21V56.67a2.94,2.94,0,0,0,2.94,2.94H18.9a2.94,2.94,0,0,0,2.94-2.94V41.21a2.94,2.94,0,0,0-2.94-2.94Z"/><path class="cls-4" d="M49.34,54.42v2.25a2.94,2.94,0,0,1-2.94,2.94H30.94A2.94,2.94,0,0,1,28,56.67V41.21a2.94,2.94,0,0,1,2.94-2.94H46.41a2.94,2.94,0,0,1,2.94,2.94v5.67"/><line class="cls-4" x1="49.34" y1="50.31" x2="49.34" y2="51.67"/><rect class="cls-7" x="6.06" y="2.82" width="2" height="0.36" rx="0.18" ry="0.18"/><rect class="cls-7" x="6.06" y="2.82" width="2" height="0.36" rx="0.18" ry="0.18" transform="translate(10.06 -4.06) rotate(90)"/><ellipse class="cls-8" cx="14.06" cy="7.5" rx="1.5" ry="0.3" transform="matrix(0.86, -0.5, 0.5, 0.86, -1.86, 8.1)"/><ellipse class="cls-9" cx="14.06" cy="7.5" rx="0.3" ry="1.5" transform="translate(-1.86 8.1) rotate(-30.23)"/><polygon class="cls-7" points="26.06 9 26.48 9.86 27.43 10 26.75 10.67 26.91 11.62 26.06 11.17 25.21 11.62 25.37 10.67 24.68 10 25.63 9.86 26.06 9"/><ellipse class="cls-10" cx="25.06" cy="2.5" rx="0.3" ry="1.5" transform="translate(14.47 25.35) rotate(-70.83)"/><ellipse class="cls-11" cx="25.06" cy="2.5" rx="1.5" ry="0.3" transform="translate(14.47 25.35) rotate(-70.83)"/><circle class="cls-12" cx="30.56" cy="6" r="1"/><circle class="cls-13" cx="39.56" cy="2" r="2"/></g></g></svg>