<svg xmlns="http://www.w3.org/2000/svg" viewBox="0 0 50.69 47.32"><defs><style>.cls-1,.cls-2{fill:none;}.cls-1,.cls-2,.cls-6{stroke:#ccc;stroke-miterlimit:10;}.cls-1{stroke-linecap:round;}.cls-3,.cls-6{fill:#e1dddc;}.cls-4{fill:#fff;}.cls-5{fill:#ccc;}</style></defs><title>课时_默认</title><g id="图层_2" data-name="图层 2"><g id="图层_1-2" data-name="图层 1"><line class="cls-1" x1="0.5" y1="25.91" x2="0.5" y2="23.38"/><rect class="cls-2" x="15.25" y="2.56" width="11.62" height="22.35" rx="1.36" ry="1.36" transform="translate(9.69 -8.69) rotate(30)"/><rect class="cls-3" x="16.57" y="8.15" width="21.49" height="11.18" rx="1.36" ry="1.36" transform="translate(-1.71 23.34) rotate(-45)"/><rect class="cls-2" x="21.51" y="0.77" width="11.62" height="22.35" rx="1.36" ry="1.36" transform="translate(16.45 -15.82) rotate(45)"/><circle class="cls-4" cx="42.07" cy="29.38" r="3.97"/><path class="cls-5" d="M42.07,25.91a3.47,3.47,0,1,1-3.47,3.47,3.47,3.47,0,0,1,3.47-3.47m0-1a4.47,4.47,0,1,0,4.47,4.47,4.47,4.47,0,0,0-4.47-4.47Z"/><path class="cls-6" d="M25.65,12.4H46.59a3.85,3.85,0,0,1,3.6,4.06v25a3.85,3.85,0,0,1-3.6,4.06H6.33a3.85,3.85,0,0,1-3.6-4.06v-25a3.85,3.85,0,0,1,3.6-4.06h5.85"/><path class="cls-1" d="M.5,19.62v-3a4,4,0,0,1,3.73-4.22h6.06s13.93,0,14,0h21.7a4,4,0,0,1,3.73,4.22v26a4,4,0,0,1-3.73,4.22H4.23A4,4,0,0,1,.5,42.6V29.08"/></g></g></svg>