<svg xmlns="http://www.w3.org/2000/svg" xmlns:xlink="http://www.w3.org/1999/xlink" viewBox="0 0 53 53.02"><defs><style>.cls-1{fill:#05b8e2;}.cls-2{fill:#46e3c5;}.cls-3{fill:#ffe443;}.cls-4,.cls-5,.cls-7{fill:none;stroke-linecap:round;stroke-miterlimit:10;}.cls-4{stroke:#000;}.cls-5,.cls-7{stroke:#fff;}.cls-5{stroke-width:0.65px;}.cls-6{fill:url(#未命名的渐变_4);}</style><linearGradient id="未命名的渐变_4" x1="2.86" y1="33.63" x2="53" y2="33.63" gradientUnits="userSpaceOnUse"><stop offset="0" stop-color="#ff7031"/><stop offset="1" stop-color="#f99450"/></linearGradient></defs><title>课时_选中</title><g id="图层_2" data-name="图层 2"><g id="图层_1-2" data-name="图层 1"><rect class="cls-1" x="23.5" y="0.82" width="2" height="0.36" rx="0.18" ry="0.18"/><rect class="cls-1" x="23.5" y="0.82" width="2" height="0.36" rx="0.18" ry="0.18" transform="translate(25.5 -23.5) rotate(90)"/><ellipse class="cls-2" cx="11.5" cy="2.5" rx="1.5" ry="0.3" transform="translate(-0.23 1.5) rotate(-7.39)"/><ellipse class="cls-2" cx="11.5" cy="2.5" rx="0.3" ry="1.5" transform="translate(-0.23 1.5) rotate(-7.39)"/><circle class="cls-2" cx="40" cy="1" r="1" transform="translate(26.4 38.63) rotate(-71.57)"/><circle class="cls-3" cx="12" cy="10" r="0.63" transform="translate(-1.28 18.22) rotate(-71.57)"/><line class="cls-4" x1="20.31" y1="8.61" x2="21.01" y2="7.39"/><path class="cls-4" d="M21.62,6.34l.55-1a1.28,1.28,0,0,1,1.75-.47l8.41,4.86a1.28,1.28,0,0,1,.47,1.75L22.28,29.76a1.28,1.28,0,0,1-1.75.47l-8.41-4.86a1.28,1.28,0,0,1-.47-1.75l7.91-13.7"/><rect class="cls-3" x="12.41" y="12.46" width="19.64" height="10.21" rx="1.36" ry="1.36" transform="translate(-4.1 28.03) rotate(-60)"/><rect class="cls-3" x="16.15" y="10.97" width="25.38" height="13.2" rx="1.36" ry="1.36" transform="translate(-3.98 25.54) rotate(-45)"/><path class="cls-5" d="M30.58,8.27,31.86,7a1.28,1.28,0,0,1,1.81,0l1.19,1.19"/><line class="cls-4" x1="27.17" y1="8.67" x2="28.1" y2="7.74"/><path class="cls-4" d="M29.9,5.94l2-2a1.28,1.28,0,0,1,1.81,0l6.87,6.87a1.28,1.28,0,0,1,0,1.81L25.74,27.46a1.28,1.28,0,0,1-1.81,0l-6.87-6.87a1.28,1.28,0,0,1,0-1.81L26,9.83"/><path class="cls-6" d="M27.07,16.15H49.2A4.07,4.07,0,0,1,53,20.44V46.82a4.07,4.07,0,0,1-3.8,4.29H6.66a4.07,4.07,0,0,1-3.8-4.29V20.44a4.07,4.07,0,0,1,3.8-4.29h6.18"/><path class="cls-7" d="M6.93,22.58A3.41,3.41,0,0,1,10.11,19h5.18"/><line class="cls-7" x1="6.93" y1="31.19" x2="6.93" y2="27.72"/><line class="cls-4" x1="0.5" y1="30.01" x2="0.5" y2="27.96"/><path class="cls-4" d="M.5,23.79V20.63a4.23,4.23,0,0,1,3.94-4.46h6.41s14.72,0,14.75,0H48.52a4.23,4.23,0,0,1,3.94,4.46V48.06a4.23,4.23,0,0,1-3.94,4.46H4.44A4.23,4.23,0,0,1,.5,48.06V33.2"/><circle class="cls-3" cx="44.43" cy="34.1" r="4.72"/></g></g></svg>