<svg xmlns="http://www.w3.org/2000/svg" viewBox="0 0 48.89 57.88"><defs><style>.cls-1{fill:#e1dddc;}.cls-2{fill:none;stroke:#ccc;stroke-linecap:round;stroke-miterlimit:10;}.cls-3{fill:#ccc;}.cls-4{fill:#fff;}.cls-5{fill:#e2dedd;}</style></defs><title>教材中心_默认</title><g id="图层_2" data-name="图层 2"><g id="图层_1-2" data-name="图层 1"><path class="cls-1" d="M5.33,5.9c3.85.74,10.29,2.39,14.22,5.62a2.73,2.73,0,0,0,3.6-.1c2.42-2.26,7.64-5.81,17.55-7.26a2.77,2.77,0,0,1,3.18,2.73v32.3a2.76,2.76,0,0,1-1.31,2.35L24.87,52.42a2.74,2.74,0,0,1-3.32-.36,29.46,29.46,0,0,0-17-8,2.73,2.73,0,0,1-2.44-2.72c0-6.84-.11-25.27-.06-32.74A2.76,2.76,0,0,1,5.33,5.9Z"/><path class="cls-2" d="M.51,22.71v-.89c0-.79,0-1.57,0-2.36"/><path class="cls-2" d="M19.52,50.64A31.22,31.22,0,0,0,3.23,43.8a3,3,0,0,1-2.65-3c0-3.22,0-8.8-.06-14.75"/><path class="cls-2" d="M40.7,43.38l-15.44,9.5a3,3,0,0,1-2.51.27"/><path class="cls-2" d="M.5,10c0-1.81,0-3.41,0-4.7A3,3,0,0,1,4.07,2.42C8.25,3.22,15.23,5,19.5,8.52A3,3,0,0,0,23.4,8.4C26,6,31.69,2.11,42.44.53a3,3,0,0,1,3.45,3V34"/><path class="cls-3" d="M9.08,12.72h.08A14.42,14.42,0,0,1,17,15.86a2.17,2.17,0,0,1,.85,1.74v16a2.2,2.2,0,0,1-2.2,2.2,2.18,2.18,0,0,1-1.1-.3,18.88,18.88,0,0,0-5.93-2.11,2.18,2.18,0,0,1-1.78-2.16V14.93a2.2,2.2,0,0,1,2.19-2.21m0-1a3.2,3.2,0,0,0-3.19,3.21V31.26a3.18,3.18,0,0,0,2.6,3.14,17.73,17.73,0,0,1,5.61,2,3.19,3.19,0,0,0,4.79-2.77v-16a3.19,3.19,0,0,0-1.24-2.53,15.34,15.34,0,0,0-8.46-3.34Z"/><path class="cls-4" d="M29.14,39.92a3.62,3.62,0,0,1-3.62-3.61V15.69a3.58,3.58,0,0,1,1.4-2.86c2-1.5,5.92-4,10.59-4.2h.13a3.62,3.62,0,0,1,3.61,3.62v21a3.59,3.59,0,0,1-2.93,3.55,23.49,23.49,0,0,0-7.38,2.62A3.58,3.58,0,0,1,29.14,39.92Z"/><path class="cls-3" d="M37.64,9.13a3.12,3.12,0,0,1,3.11,3.12v21a3.09,3.09,0,0,1-2.52,3.06A24,24,0,0,0,30.69,39a3.08,3.08,0,0,1-1.55.42A3.12,3.12,0,0,1,26,36.31V15.69a3.08,3.08,0,0,1,1.21-2.46c1.9-1.46,5.77-3.94,10.3-4.1h.11m0-1H37.5c-4.76.16-8.77,2.68-10.88,4.3A4.1,4.1,0,0,0,25,15.69V36.31a4.11,4.11,0,0,0,6.17,3.56,22.81,22.81,0,0,1,7.22-2.56,4.09,4.09,0,0,0,3.34-4v-21a4.12,4.12,0,0,0-4.11-4.12Z"/><polygon class="cls-5" points="26.55 57.1 21.32 55.75 23.02 51.67 40.08 40.59 43.61 46.03 26.55 57.1"/><path class="cls-3" d="M40.89,39.35l3.27,5L25,56.8l-4.81-1.34,1.43-3.63L40.89,39.35M41.19,38,20.85,51.17l-2,5,6.31,1.76,20.34-13.2L41.19,38Z"/><path class="cls-3" d="M44.89,37.13A3,3,0,0,1,47,42.25l-.21.19-3.24-5,.29-.12a2.74,2.74,0,0,1,1-.2m0-1a4,4,0,0,0-2.69,1.06l4.28,6.6A3.75,3.75,0,0,0,47.72,43a4,4,0,0,0-2.83-6.83Z"/></g></g></svg>