<svg xmlns="http://www.w3.org/2000/svg" xmlns:xlink="http://www.w3.org/1999/xlink" viewBox="0 0 51.89 62.65"><defs><style>.cls-1,.cls-3,.cls-7,.cls-9{fill:none;}.cls-1{stroke:#000;}.cls-1,.cls-7,.cls-9{stroke-linecap:round;}.cls-1,.cls-3,.cls-4,.cls-7,.cls-9{stroke-miterlimit:10;}.cls-2{fill:url(#未命名的渐变_4);}.cls-3,.cls-4{stroke:#ffe443;}.cls-4{fill:#fff;}.cls-5{fill:#ffe443;}.cls-6{fill:#05b8e2;}.cls-7,.cls-9{stroke:#fff;}.cls-7{stroke-width:0.5px;}.cls-8{fill:#46e3c5;}</style><linearGradient id="未命名的渐变_4" x1="2.5" y1="36.27" x2="44.35" y2="36.27" gradientUnits="userSpaceOnUse"><stop offset="0" stop-color="#ff7031"/><stop offset="1" stop-color="#f99450"/></linearGradient></defs><title>教材中心_选中</title><g id="图层_2" data-name="图层 2"><g id="图层_1-2" data-name="图层 1"><path class="cls-1" d="M.51,30.5v-.89c0-.79,0-1.57,0-2.36"/><path class="cls-1" d="M18,57.28A30.67,30.67,0,0,0,3.23,51.59a3,3,0,0,1-2.65-3c0-3.22,0-8.8-.06-14.75"/><path class="cls-1" d="M.5,17.84c0-1.81,0-3.41,0-4.7a3,3,0,0,1,3.55-2.92c4.18.8,11.16,2.59,15.43,6.1a3,3,0,0,0,3.91-.11c2.62-2.45,8.29-6.3,19-7.87a3,3,0,0,1,3.45,3V37"/><path class="cls-2" d="M5.79,13.69c3.85.74,10.29,2.39,14.22,5.62a2.73,2.73,0,0,0,3.6-.1C26,16.95,31.26,13.4,41.17,12a2.77,2.77,0,0,1,3.18,2.73V47A2.76,2.76,0,0,1,43,49.32L25.33,60.22A2.74,2.74,0,0,1,22,59.86a29.46,29.46,0,0,0-17-8,2.73,2.73,0,0,1-2.44-2.72c0-6.84-.11-25.27-.06-32.74A2.76,2.76,0,0,1,5.79,13.69Z"/><path class="cls-3" d="M5.89,23.72V40.06a3.18,3.18,0,0,0,2.6,3.14,17.73,17.73,0,0,1,5.61,2,3.2,3.2,0,0,0,4.79-2.77v-16a3.19,3.19,0,0,0-1.24-2.53,15.34,15.34,0,0,0-8.46-3.34A3.2,3.2,0,0,0,5.89,23.72Z"/><path class="cls-4" d="M41.75,21v21a4.09,4.09,0,0,1-3.34,4,22.81,22.81,0,0,0-7.22,2.56A4.11,4.11,0,0,1,25,45.1V24.48a4.1,4.1,0,0,1,1.6-3.26c2.11-1.62,6.12-4.14,10.88-4.3A4.12,4.12,0,0,1,41.75,21Z"/><polygon class="cls-5" points="26.82 61.61 20.47 59.96 22.53 54.99 43.28 41.53 47.57 48.14 26.82 61.61"/><path d="M42.87,41.47l3.85,5.93L24.88,61.57,19.22,60l1.69-4.29L42.87,41.47m.29-1.38L20.11,55l-2.22,5.62,7.16,2,23.06-15-4.94-7.61Z"/><path class="cls-5" d="M45,39.29a4.12,4.12,0,0,1,2.39-.8,4,4,0,0,1,2.85,6.89,3.87,3.87,0,0,1-.87.65Z"/><path d="M47.35,39a3.54,3.54,0,0,1,2.5,6,3.44,3.44,0,0,1-.37.32l-3.83-5.91a3.65,3.65,0,0,1,.47-.21A3.23,3.23,0,0,1,47.35,39m0-1a4.55,4.55,0,0,0-3,1.2l4.85,7.48a4.25,4.25,0,0,0,1.41-.94A4.54,4.54,0,0,0,47.35,38Z"/><polygon class="cls-6" points="49.39 12.92 49.81 13.78 50.76 13.92 50.07 14.59 50.24 15.54 49.39 15.09 48.53 15.54 48.7 14.59 48.01 13.92 48.96 13.78 49.39 12.92"/><line class="cls-7" x1="41.39" y1="44.42" x2="38.39" y2="46.42"/><line class="cls-7" x1="37.39" y1="47.42" x2="34.39" y2="49.42"/><polygon class="cls-6" points="21.39 7.92 21.81 8.78 22.76 8.92 22.07 9.59 22.24 10.54 21.39 10.09 20.54 10.54 20.7 9.59 20.01 8.92 20.96 8.78 21.39 7.92"/><ellipse class="cls-8" cx="12.39" cy="9.42" rx="1.5" ry="0.3" transform="matrix(0.86, -0.5, 0.5, 0.86, -3.06, 7.52)"/><ellipse class="cls-8" cx="12.39" cy="9.42" rx="0.3" ry="1.5" transform="translate(-3.06 7.52) rotate(-30.23)"/><ellipse class="cls-8" cx="20.39" cy="1.42" rx="0.3" ry="1.5" transform="translate(12.35 20.21) rotate(-70.83)"/><ellipse class="cls-8" cx="20.39" cy="1.42" rx="1.5" ry="0.3" transform="translate(12.35 20.21) rotate(-70.83)"/><circle class="cls-5" cx="25.89" cy="4.92" r="1"/><line class="cls-9" x1="21.39" y1="35.42" x2="21.39" y2="38.42"/><line class="cls-9" x1="21.39" y1="27.42" x2="21.39" y2="33.42"/></g></g></svg>