<svg xmlns="http://www.w3.org/2000/svg" viewBox="0 0 51 51"><defs><style>.cls-1{fill:#efefef;}.cls-2{fill:#e1dddc;}.cls-3,.cls-4{fill:none;stroke:#ccc;stroke-miterlimit:10;}.cls-4{stroke-linecap:round;}</style></defs><title>教学活动_默认</title><g id="图层_2" data-name="图层 2"><g id="图层_1-2" data-name="图层 1"><circle class="cls-1" cx="27.5" cy="25.5" r="23.5"/><path class="cls-2" d="M30.77,13.57,32.5,18.9a2.33,2.33,0,0,0,2.22,1.61h5.61a2.33,2.33,0,0,1,1.37,4.22L37.16,28a2.33,2.33,0,0,0-.85,2.61L38,36a2.33,2.33,0,0,1-3.59,2.61l-4.54-3.29a2.33,2.33,0,0,0-2.74,0l-4.54,3.29A2.33,2.33,0,0,1,19,36l1.73-5.33A2.33,2.33,0,0,0,19.93,28L15.4,24.74a2.33,2.33,0,0,1,1.37-4.22h5.61a2.33,2.33,0,0,0,2.22-1.61l1.73-5.33A2.33,2.33,0,0,1,30.77,13.57Z"/><path class="cls-3" d="M30,12.1l1.95,6a2.62,2.62,0,0,0,2.49,1.81h6.3a2.62,2.62,0,0,1,1.54,4.74l-5.1,3.7a2.62,2.62,0,0,0-1,2.93l1.95,6a2.62,2.62,0,0,1-4,2.93L29,36.5a2.62,2.62,0,0,0-3.08,0l-5.1,3.7a2.62,2.62,0,0,1-4-2.93l1.95-6a2.62,2.62,0,0,0-1-2.93l-5.1-3.7a2.62,2.62,0,0,1,1.54-4.74h6.3a2.62,2.62,0,0,0,2.49-1.81l1.95-6A2.62,2.62,0,0,1,30,12.1Z"/><path class="cls-4" d="M8.23,7.42q.71-.68,1.47-1.3"/><path class="cls-4" d="M12.74,4a25,25,0,1,1-6.87,6"/></g></g></svg>