<svg xmlns="http://www.w3.org/2000/svg" xmlns:xlink="http://www.w3.org/1999/xlink" viewBox="0 0 51.5 57.46"><defs><style>.cls-1{fill:url(#未命名的渐变_4);}.cls-10,.cls-2{fill:none;stroke-linecap:round;stroke-miterlimit:10;}.cls-2{stroke:#fff;}.cls-3{fill:#05b8e2;}.cls-4{fill:url(#未命名的渐变_4-2);}.cls-5{fill:url(#未命名的渐变_4-3);}.cls-6{fill:#46e3c5;}.cls-7{fill:url(#未命名的渐变_4-4);}.cls-8{fill:url(#未命名的渐变_4-5);}.cls-9{fill:#ffe443;}.cls-10{stroke:#000;}</style><linearGradient id="未命名的渐变_4" x1="4.5" y1="31.96" x2="51.5" y2="31.96" gradientUnits="userSpaceOnUse"><stop offset="0" stop-color="#ff7031"/><stop offset="1" stop-color="#f99450"/></linearGradient><linearGradient id="未命名的渐变_4-2" x1="0" y1="3.99" x2="2" y2="3.99" xlink:href="#未命名的渐变_4"/><linearGradient id="未命名的渐变_4-3" x1="0.82" y1="3.99" x2="1.18" y2="3.99" xlink:href="#未命名的渐变_4"/><linearGradient id="未命名的渐变_4-4" x1="37.51" y1="1.49" x2="40.49" y2="1.49" gradientTransform="translate(0.52 -5.01) rotate(7.39)" xlink:href="#未命名的渐变_4"/><linearGradient id="未命名的渐变_4-5" x1="38.65" y1="1.49" x2="39.35" y2="1.49" gradientTransform="translate(0.52 -5.01) rotate(7.39)" xlink:href="#未命名的渐变_4"/></defs><title>教学活动_选中</title><g id="图层_2" data-name="图层 2"><g id="图层_1-2" data-name="图层 1"><circle class="cls-1" cx="28" cy="31.96" r="23.5"/><path class="cls-2" d="M41.93,17.89A21,21,0,0,1,44,20.37"/><path class="cls-2" d="M35.23,13.28a21,21,0,0,1,2.17,1.09q.65.38,1.28.8a21.1,21.1,0,0,1,1.84,1.4"/><polygon class="cls-3" points="29 0.99 29.43 1.85 30.38 1.99 29.69 2.66 29.85 3.6 29 3.16 28.15 3.6 28.31 2.66 27.62 1.99 28.57 1.85 29 0.99"/><rect class="cls-4" y="3.81" width="2" height="0.36" rx="0.18" ry="0.18"/><rect class="cls-5" x="0.82" y="2.99" width="0.36" height="2" rx="0.18" ry="0.18"/><ellipse class="cls-6" cx="8" cy="8.49" rx="1.5" ry="0.3" transform="translate(-3.19 5.18) rotate(-30.23)"/><ellipse class="cls-6" cx="8" cy="8.49" rx="0.3" ry="1.5" transform="translate(-3.19 5.18) rotate(-30.23)"/><ellipse class="cls-7" cx="39" cy="1.49" rx="1.5" ry="0.3" transform="translate(0.13 5.03) rotate(-7.39)"/><ellipse class="cls-8" cx="39" cy="1.49" rx="0.3" ry="1.5" transform="translate(0.13 5.03) rotate(-7.39)"/><circle class="cls-9" cx="44.5" cy="7.99" r="1" transform="translate(22.85 47.68) rotate(-71.57)"/><path class="cls-10" d="M8.73,13.89q.71-.68,1.47-1.3"/><path class="cls-10" d="M13.24,10.46a25,25,0,1,1-6.87,6"/><path class="cls-9" d="M31.27,20,33,25.37A2.33,2.33,0,0,0,35.22,27h5.61A2.33,2.33,0,0,1,42.2,31.2L37.66,34.5a2.33,2.33,0,0,0-.85,2.61l1.73,5.33A2.33,2.33,0,0,1,35,45l-4.54-3.29a2.33,2.33,0,0,0-2.74,0L23.14,45a2.33,2.33,0,0,1-3.59-2.61l1.73-5.33a2.33,2.33,0,0,0-.85-2.61L15.9,31.2A2.33,2.33,0,0,1,17.27,27h5.61a2.33,2.33,0,0,0,2.22-1.61L26.83,20A2.33,2.33,0,0,1,31.27,20Z"/><path d="M28,17.75a1.58,1.58,0,0,1,1.54,1.12l1.95,6a3.61,3.61,0,0,0,3.45,2.5h6.3a1.62,1.62,0,0,1,1,2.94L37.09,34a3.61,3.61,0,0,0-1.32,4.05l1.95,6a1.56,1.56,0,0,1-.21,1.44,1.69,1.69,0,0,1-1.34.7,1.59,1.59,0,0,1-.94-.32l-5.1-3.7a3.62,3.62,0,0,0-4.26,0l-5.1,3.7a1.59,1.59,0,0,1-.94.32,1.69,1.69,0,0,1-1.34-.7A1.56,1.56,0,0,1,18.28,44l1.95-6A3.61,3.61,0,0,0,18.91,34l-5.1-3.7a1.62,1.62,0,0,1,1-2.94h6.3a3.61,3.61,0,0,0,3.45-2.5l1.95-6A1.58,1.58,0,0,1,28,17.75m0-1a2.57,2.57,0,0,0-2.49,1.81l-1.95,6a2.62,2.62,0,0,1-2.49,1.81h-6.3a2.62,2.62,0,0,0-1.54,4.74l5.1,3.7a2.62,2.62,0,0,1,1,2.93l-1.95,6a2.63,2.63,0,0,0,2.5,3.44,2.59,2.59,0,0,0,1.53-.51l5.1-3.7a2.62,2.62,0,0,1,3.08,0l5.1,3.7a2.59,2.59,0,0,0,1.53.51,2.63,2.63,0,0,0,2.5-3.44l-1.95-6a2.62,2.62,0,0,1,1-2.93l5.1-3.7a2.62,2.62,0,0,0-1.54-4.74h-6.3a2.62,2.62,0,0,1-2.49-1.81l-1.95-6A2.57,2.57,0,0,0,28,16.75Z"/></g></g></svg>