<svg xmlns="http://www.w3.org/2000/svg" viewBox="0 0 63.68 62.66"><defs><style>.cls-1{fill:#56b4ff;}.cls-2{fill:#ffdc00;}.cls-11,.cls-3,.cls-4,.cls-5,.cls-9{fill:none;stroke-miterlimit:10;}.cls-3,.cls-4{stroke:#000;}.cls-3,.cls-5{stroke-linecap:round;}.cls-3,.cls-4,.cls-5{stroke-width:2px;}.cls-5{stroke:#fff;}.cls-6{fill:#4cd2eb;}.cls-7{fill:#ff5a5a;}.cls-8{fill:#0b6eff;}.cls-9{stroke:#ea4fea;}.cls-10{fill:#ff8f5c;}.cls-11{stroke:#31d4e5;stroke-width:0.25px;}</style></defs><title>订单提醒</title><g id="图层_2" data-name="图层 2"><g id="图层_1-2" data-name="图层 1"><path class="cls-1" d="M50.29,12.31H47.78v.29A3.82,3.82,0,0,1,44,16.42H30a3.82,3.82,0,0,1-3.82-3.82v-.29H23.67a6.22,6.22,0,0,0-6.22,6.22V50.29a6.22,6.22,0,0,0,6.22,6.22H50.29a6.22,6.22,0,0,0,6.22-6.22V18.53A6.22,6.22,0,0,0,50.29,12.31Z"/><rect class="cls-2" x="28.76" y="7.17" width="19.53" height="9.25" rx="3.72" ry="3.72"/><path class="cls-3" d="M14.36,38.18V17.45a4.11,4.11,0,0,1,4.11-4.11h3.15"/><path class="cls-3" d="M53.43,23.7V51.37a4.11,4.11,0,0,1-4.11,4.11H18.48a4.11,4.11,0,0,1-4.11-4.11V49"/><path class="cls-3" d="M45.72,13.34h3.6a4.11,4.11,0,0,1,4.11,4.11v3"/><path class="cls-2" d="M33.38,8.28V5A4.88,4.88,0,0,1,38.27.14h0A4.88,4.88,0,0,1,43.15,5V8.28"/><path d="M39.95,9.17a1.72,1.72,0,0,1,1.72,1.72V12.7a1.72,1.72,0,0,1-1.72,1.72H27.85a1.72,1.72,0,0,1-1.72-1.72V10.89a1.72,1.72,0,0,1,1.72-1.72h12.1m0-2H27.85a3.72,3.72,0,0,0-3.72,3.72V12.7a3.72,3.72,0,0,0,3.72,3.72h12.1a3.72,3.72,0,0,0,3.72-3.72V10.89a3.72,3.72,0,0,0-3.72-3.72Z"/><path class="cls-4" d="M30.3,7.43V4.86A3.86,3.86,0,0,1,34.16,1h0A3.86,3.86,0,0,1,38,4.86V7.43"/><line class="cls-3" x1="14.36" y1="42.12" x2="14.36" y2="44.18"/><line class="cls-3" x1="21.56" y1="27.73" x2="30.81" y2="27.73"/><line class="cls-3" x1="39.04" y1="33.9" x2="46.24" y2="33.9"/><line class="cls-3" x1="33.9" y1="27.73" x2="48.29" y2="27.73"/><line class="cls-3" x1="21.56" y1="33.9" x2="35.95" y2="33.9"/><line class="cls-3" x1="21.56" y1="41.09" x2="28.76" y2="41.09"/><line class="cls-3" x1="32.87" y1="41.09" x2="47.26" y2="41.09"/><path class="cls-5" d="M42.41,51.68A8.17,8.17,0,0,0,49.85,48"/><line class="cls-3" x1="56.69" y1="61.66" x2="62.68" y2="61.66"/><line class="cls-3" x1="21.16" y1="61.66" x2="52" y2="61.66"/><line class="cls-3" x1="14.36" y1="61.66" x2="16.25" y2="61.66"/><line class="cls-3" x1="1" y1="61.66" x2="9.22" y2="61.66"/><circle class="cls-6" cx="14.59" cy="5.95" r="1.81" transform="translate(6.1 19.22) rotate(-79.57)"/><rect class="cls-7" x="7.24" y="18.7" width="3.4" height="0.93" rx="0.46" ry="0.46" transform="translate(-9.52 8.85) rotate(-35.79)"/><rect class="cls-7" x="7.24" y="18.7" width="3.4" height="0.93" rx="0.46" ry="0.46" transform="translate(19.26 0.7) rotate(54.21)"/><rect class="cls-2" x="7.24" y="53.65" width="3.4" height="0.93" rx="0.46" ry="0.46" transform="translate(-29.95 15.45) rotate(-35.79)"/><rect class="cls-2" x="7.24" y="53.65" width="3.4" height="0.93" rx="0.46" ry="0.46" transform="translate(47.61 15.21) rotate(54.21)"/><circle class="cls-8" cx="1.58" cy="36.66" r="0.9" transform="translate(-34.76 31.58) rotate(-79.57)"/><circle class="cls-9" cx="53.72" cy="6.67" r="1.36" transform="translate(0.04 13.68) rotate(-14.52)"/><rect class="cls-10" x="60.51" y="34.79" width="3.4" height="0.93" rx="0.46" ry="0.46" transform="translate(-3.31 63.89) rotate(-53.15)"/><rect class="cls-10" x="60.51" y="34.79" width="3.4" height="0.93" rx="0.46" ry="0.46" transform="translate(33.57 -30.26) rotate(36.85)"/><circle class="cls-1" cx="62.26" cy="20.66" r="1.36" transform="translate(-2.04 7.67) rotate(-6.93)"/><circle class="cls-11" cx="61.02" cy="55.44" r="0.9" transform="translate(-6.25 7.77) rotate(-6.93)"/></g></g></svg>