<svg xmlns="http://www.w3.org/2000/svg" viewBox="0 0 70.65 59.4"><defs><style>.cls-1{fill:#4cd2eb;}.cls-2{fill:#ff5a5a;}.cls-3{fill:#ffdc00;}.cls-4{fill:#0b6eff;}.cls-10,.cls-11,.cls-12,.cls-5,.cls-8,.cls-9{fill:none;stroke-miterlimit:10;}.cls-5{stroke:#ea4fea;}.cls-6{fill:#ff8f5c;}.cls-7{fill:#56b4ff;}.cls-8{stroke:#31d4e5;stroke-width:0.25px;}.cls-9{stroke:#020202;}.cls-10,.cls-11,.cls-12,.cls-9{stroke-linecap:round;}.cls-10,.cls-12,.cls-9{stroke-width:2px;}.cls-10{stroke:#000;}.cls-11{stroke:#56b4ff;stroke-width:4px;}.cls-12{stroke:#fff;}</style></defs><title>课时提醒</title><g id="图层_2" data-name="图层 2"><g id="图层_1-2" data-name="图层 1"><circle class="cls-1" cx="8.14" cy="3.94" r="1.81"/><rect class="cls-2" x="3.27" y="17.5" width="3.4" height="0.93" rx="0.46" ry="0.46" transform="translate(-11.44 9.13) rotate(-46.22)"/><rect class="cls-2" x="3.27" y="17.5" width="3.4" height="0.93" rx="0.46" ry="0.46" transform="translate(13.81 1.55) rotate(43.78)"/><rect class="cls-3" x="9.61" y="51.87" width="3.4" height="0.93" rx="0.46" ry="0.46" transform="translate(-34.3 24.29) rotate(-46.22)"/><rect class="cls-3" x="9.61" y="51.87" width="3.4" height="0.93" rx="0.46" ry="0.46" transform="translate(39.36 6.73) rotate(43.78)"/><circle class="cls-4" cx="0.9" cy="36.51" r="0.9"/><circle class="cls-5" cx="62.51" cy="1.86" r="1.36" transform="translate(0.3 8.27) rotate(-7.58)"/><rect class="cls-6" x="65.79" y="30.79" width="3.4" height="0.93" rx="0.46" ry="0.46" transform="translate(-1.77 58.35) rotate(-46.22)"/><rect class="cls-6" x="65.79" y="30.79" width="3.4" height="0.93" rx="0.46" ry="0.46" transform="translate(40.39 -38.01) rotate(43.78)"/><circle class="cls-7" cx="69.3" cy="16.78" r="1.36"/><circle class="cls-8" cx="63.87" cy="51.16" r="0.9"/><line class="cls-9" x1="63.35" y1="58.4" x2="67.71" y2="58.4"/><line class="cls-9" x1="22.37" y1="58.4" x2="59.57" y2="58.4"/><line class="cls-9" x1="2.93" y1="58.4" x2="12.57" y2="58.4"/><line class="cls-9" x1="16.89" y1="58.4" x2="18.88" y2="58.4"/><path class="cls-7" d="M51.64,5.09H21.23a3.33,3.33,0,0,0-3.33,3.33V50.91a3.33,3.33,0,0,0,3.33,3.33H51.64A3.33,3.33,0,0,0,55,50.91V8.42A3.33,3.33,0,0,0,51.64,5.09ZM43.89,40.46H38.6a1.82,1.82,0,1,1-3.63,0H29.68A2.68,2.68,0,0,1,31.33,37V33.2h0A5.45,5.45,0,0,1,35,28a1.82,1.82,0,1,1,3.57,0,5.45,5.45,0,0,1,3.67,5.15h0V37a2.68,2.68,0,0,1,1.65,3.47Z"/><path class="cls-10" d="M52.47,44.93v5.15a3.33,3.33,0,0,1-3.33,3.33H18.73a3.33,3.33,0,0,1-3.33-3.33V18.62"/><line class="cls-10" x1="52.47" y1="37.91" x2="52.47" y2="40.81"/><path class="cls-10" d="M15.4,13.53V8.42a3.33,3.33,0,0,1,3.33-3.33H49.14a3.33,3.33,0,0,1,3.33,3.33V33.94"/><path class="cls-3" d="M45.18,20.84l-4.9-4.29a1,1,0,0,0-1.41,0L34.8,20.68a.63.63,0,0,1-1.07-.44V5.92h12.5V20.37A.63.63,0,0,1,45.18,20.84Z"/><line class="cls-10" x1="43.72" y1="11.75" x2="43.72" y2="13.62"/><path class="cls-10" d="M43.72,16.42v3.43a.11.11,0,0,1-.19.08l-.84-.69-1.19-1-1.28-1.06-2.81-2.33a.54.54,0,0,0-.7,0l-5.3,5a.11.11,0,0,1-.19-.08V5.09h12.5V8.73"/><line class="cls-11" x1="58.72" y1="5.92" x2="58.72" y2="52.58"/><line class="cls-10" x1="57.89" y1="24.67" x2="57.89" y2="53.41"/><line class="cls-10" x1="57.89" y1="5.09" x2="57.89" y2="17.59"/><line class="cls-12" x1="41.22" y1="10.09" x2="41.22" y2="12.59"/></g></g></svg>