<svg xmlns="http://www.w3.org/2000/svg" viewBox="0 0 100 100"><defs><style>.cls-1{fill:#cef5b5;}.cls-2{fill:#997b7e;}.cls-3{fill:#36c6ff;}.cls-4{fill:#ffe800;}.cls-5,.cls-6{fill:none;stroke-linecap:round;}.cls-5,.cls-7{stroke:#997b7e;}.cls-5,.cls-6,.cls-7{stroke-miterlimit:10;}.cls-6{stroke:#fff;stroke-width:2px;}.cls-7{fill:#f2b7f7;}</style></defs><title>订单通知</title><g id="图层_2" data-name="图层 2"><g id="图层_1-2" data-name="图层 1"><path class="cls-1" d="M50,99.5A49.5,49.5,0,1,1,99.5,50,49.56,49.56,0,0,1,50,99.5Z"/><path class="cls-2" d="M50,1A49,49,0,1,1,1,50,49.06,49.06,0,0,1,50,1m0-1a50,50,0,1,0,50,50A50,50,0,0,0,50,0Z"/><path class="cls-3" d="M66.42,28.52H63.78v.3a4,4,0,0,1-4,4H45.09a4,4,0,0,1-4-4v-.3H38.43a6.55,6.55,0,0,0-6.55,6.55v33.4A6.55,6.55,0,0,0,38.43,75h28A6.55,6.55,0,0,0,73,68.47V35.07A6.55,6.55,0,0,0,66.42,28.52Z"/><rect class="cls-4" x="43.77" y="23.12" width="20.54" height="9.73" rx="3.72" ry="3.72"/><path class="cls-5" d="M28.64,55.73V33.93A4.33,4.33,0,0,1,33,29.6h3.31"/><path class="cls-5" d="M69.72,40.51v29.1a4.33,4.33,0,0,1-4.33,4.33H33a4.33,4.33,0,0,1-4.33-4.33V67.08"/><path class="cls-5" d="M61.61,29.6H65.4a4.33,4.33,0,0,1,4.33,4.33v3.15"/><path class="cls-4" d="M48.64,24.29V20.86a5.14,5.14,0,0,1,5.14-5.14h0a5.14,5.14,0,0,1,5.14,5.14v3.42"/><rect class="cls-5" x="38.91" y="23.12" width="20.54" height="9.73" rx="3.72" ry="3.72"/><path class="cls-5" d="M45.4,23.39v-2.7a4.05,4.05,0,0,1,4.05-4.05h0a4.05,4.05,0,0,1,4.05,4.05v2.7"/><line class="cls-5" x1="28.64" y1="59.88" x2="28.64" y2="62.04"/><line class="cls-5" x1="36.21" y1="44.74" x2="45.94" y2="44.74"/><line class="cls-5" x1="54.59" y1="51.23" x2="62.15" y2="51.23"/><line class="cls-5" x1="49.18" y1="44.74" x2="64.32" y2="44.74"/><line class="cls-5" x1="36.21" y1="51.23" x2="51.34" y2="51.23"/><line class="cls-5" x1="36.21" y1="58.8" x2="43.77" y2="58.8"/><line class="cls-5" x1="48.1" y1="58.8" x2="63.24" y2="58.8"/><path class="cls-6" d="M58.13,69.93A8.59,8.59,0,0,0,66,66.08"/><line class="cls-7" x1="78.13" y1="82.27" x2="82.5" y2="82.27"/><line class="cls-7" x1="37" y1="82.27" x2="74.33" y2="82.27"/><line class="cls-7" x1="17.5" y1="82.27" x2="27.17" y2="82.27"/><line class="cls-7" x1="31.5" y1="82.27" x2="33.5" y2="82.27"/></g></g></svg>