<svg xmlns="http://www.w3.org/2000/svg" viewBox="0 0 100 100"><defs><style>.cls-1{fill:#f7cf77;}.cls-2{fill:#9b7b7e;}.cls-3,.cls-5,.cls-7,.cls-8,.cls-9{fill:none;stroke-miterlimit:10;}.cls-3,.cls-5,.cls-8{stroke:#9b7b7e;}.cls-3,.cls-7,.cls-8,.cls-9{stroke-linecap:round;}.cls-4{fill:#f9a346;}.cls-6{fill:#ffe443;}.cls-7{stroke:#56b4ff;stroke-width:4px;}.cls-8,.cls-9{stroke-width:2px;}.cls-9{stroke:#fff;}</style></defs><title>学校通知</title><g id="图层_2" data-name="图层 2"><g id="图层_1-2" data-name="图层 1"><path class="cls-1" d="M50,99.5A49.5,49.5,0,1,1,99.5,50,49.56,49.56,0,0,1,50,99.5Z"/><path class="cls-2" d="M50,1A49,49,0,1,1,1,50,49.06,49.06,0,0,1,50,1m0-1a50,50,0,1,0,50,50A50,50,0,0,0,50,0Z"/><line class="cls-3" x1="78.03" y1="76.66" x2="82.39" y2="76.66"/><line class="cls-3" x1="37.04" y1="76.66" x2="74.25" y2="76.66"/><line class="cls-3" x1="17.61" y1="76.66" x2="27.25" y2="76.66"/><line class="cls-3" x1="31.56" y1="76.66" x2="33.56" y2="76.66"/><path class="cls-4" d="M64.58,23.34H34.17a3.33,3.33,0,0,0-3.33,3.33V69.17a3.33,3.33,0,0,0,3.33,3.33H64.58a3.33,3.33,0,0,0,3.33-3.33V26.68A3.33,3.33,0,0,0,64.58,23.34ZM56.83,58.71H51.54a1.82,1.82,0,1,1-3.63,0H42.62a2.68,2.68,0,0,1,1.65-3.47v-3.8h0a5.45,5.45,0,0,1,3.67-5.15,1.82,1.82,0,1,1,3.57,0,5.45,5.45,0,0,1,3.67,5.15h0v3.8a2.68,2.68,0,0,1,1.65,3.47Z"/><path class="cls-3" d="M65.41,63.19v5.15a3.33,3.33,0,0,1-3.33,3.33H31.67a3.33,3.33,0,0,1-3.33-3.33V36.87"/><line class="cls-3" x1="65.41" y1="56.16" x2="65.41" y2="59.07"/><path class="cls-5" d="M28.34,31.78v-5.1a3.33,3.33,0,0,1,3.33-3.33H62.08a3.33,3.33,0,0,1,3.33,3.33V52.19"/><path class="cls-6" d="M58.12,39.1l-4.9-4.29a1,1,0,0,0-1.41,0l-4.08,4.08a.63.63,0,0,1-1.07-.44V24.18h12.5V38.62A.63.63,0,0,1,58.12,39.1Z"/><line class="cls-3" x1="56.67" y1="30.01" x2="56.67" y2="31.87"/><path class="cls-3" d="M56.67,34.67V38.1a.11.11,0,0,1-.19.08l-.84-.69-1.19-1-1.28-1.06-2.81-2.33a.54.54,0,0,0-.7,0l-5.3,5a.11.11,0,0,1-.19-.08V23.34h12.5V27"/><line class="cls-7" x1="71.66" y1="24.18" x2="71.66" y2="70.84"/><line class="cls-8" x1="70.83" y1="42.92" x2="70.83" y2="71.67"/><line class="cls-8" x1="70.83" y1="23.34" x2="70.83" y2="35.84"/><line class="cls-9" x1="54.17" y1="28.34" x2="54.17" y2="30.84"/></g></g></svg>