<svg xmlns="http://www.w3.org/2000/svg" viewBox="0 0 100 100"><defs><style>.cls-1{fill:#f3cfd7;}.cls-2{fill:#9b7b7e;}.cls-3{fill:#f9a346;}.cls-4{fill:#ffdf00;}.cls-5,.cls-7{fill:none;stroke-linecap:round;stroke-miterlimit:10;}.cls-5{stroke:#9b7b7e;}.cls-6{fill:#56b4ff;}.cls-7{stroke:#fff;stroke-width:2px;}</style></defs><title>课程提醒</title><g id="图层_2" data-name="图层 2"><g id="图层_1-2" data-name="图层 1"><path class="cls-1" d="M50,99.5A49.5,49.5,0,1,1,99.5,50,49.56,49.56,0,0,1,50,99.5Z"/><path class="cls-2" d="M50,1A49,49,0,1,1,1,50,49.06,49.06,0,0,1,50,1m0-1a50,50,0,1,0,50,50A50,50,0,0,0,50,0Z"/><rect class="cls-3" x="29.16" y="37.87" width="44.34" height="33.7" rx="4" ry="4"/><path class="cls-4" d="M33.16,28.11H69.5a4,4,0,0,1,4,4V45a0,0,0,0,1,0,0H29.16a0,0,0,0,1,0,0V32.11A4,4,0,0,1,33.16,28.11Z"/><path class="cls-5" d="M70,61.7v6.08a3.67,3.67,0,0,1-3.55,3.78H30a3.67,3.67,0,0,1-3.55-3.78V41.91"/><path class="cls-5" d="M26.5,37.53V33.67C26.5,31.58,28.09,29,30,29H66.41A3.67,3.67,0,0,1,70,32.78V53.05"/><line class="cls-5" x1="26.5" y1="44.96" x2="69.95" y2="44.96"/><line class="cls-5" x1="69.95" y1="56.49" x2="69.95" y2="58.26"/><rect class="cls-6" x="35.42" y="22.95" width="6.21" height="11.98" rx="1.5" ry="1.5"/><path class="cls-2" d="M40.13,23.45a1,1,0,0,1,1,1v9a1,1,0,0,1-1,1H36.92a1,1,0,0,1-1-1v-9a1,1,0,0,1,1-1h3.21m0-1H36.92a2,2,0,0,0-2,2v9a2,2,0,0,0,2,2h3.21a2,2,0,0,0,2-2v-9a2,2,0,0,0-2-2Z"/><rect class="cls-6" x="54.82" y="22.62" width="6.21" height="11.98" rx="1.5" ry="1.5"/><path class="cls-2" d="M59.53,23.13a1,1,0,0,1,1,1v9a1,1,0,0,1-1,1H56.32a1,1,0,0,1-1-1v-9a1,1,0,0,1,1-1h3.21m0-1H56.32a2,2,0,0,0-2,2v9a2,2,0,0,0,2,2h3.21a2,2,0,0,0,2-2v-9a2,2,0,0,0-2-2Z"/><line class="cls-5" x1="48.67" y1="51.17" x2="65.52" y2="51.17"/><line class="cls-5" x1="48.67" y1="58.26" x2="65.52" y2="58.26"/><line class="cls-5" x1="48.67" y1="66.24" x2="65.52" y2="66.24"/><polyline class="cls-5" points="33.59 49.39 36.26 52.94 41.58 48.51"/><polyline class="cls-5" points="33.59 56.49 36.26 60.03 41.58 55.6"/><polyline class="cls-5" points="33.59 64.47 36.26 68.02 41.58 63.58"/><line class="cls-7" x1="67.29" y1="39.64" x2="67.29" y2="40.53"/><path class="cls-7" d="M64.63,32.54s2.66-.89,2.66,3.55"/><line class="cls-5" x1="78.13" y1="77.88" x2="82.5" y2="77.88"/><line class="cls-5" x1="37" y1="77.88" x2="74.33" y2="77.88"/><line class="cls-5" x1="17.5" y1="77.88" x2="27.17" y2="77.88"/><line class="cls-5" x1="31.5" y1="77.88" x2="33.5" y2="77.88"/></g></g></svg>