<svg xmlns="http://www.w3.org/2000/svg" viewBox="0 0 100 100"><defs><style>.cls-1{fill:#997b7e;}.cls-2,.cls-8{fill:#f2b7f7;}.cls-3{fill:#ffad00;}.cls-4{fill:#56b2ff;}.cls-5{fill:#ffe800;}.cls-6,.cls-7{fill:none;stroke-linecap:round;}.cls-6,.cls-8{stroke:#997b7e;}.cls-6,.cls-7,.cls-8{stroke-miterlimit:10;}.cls-7{stroke:#fff;stroke-width:2px;}</style></defs><title>消息提醒</title><g id="图层_2" data-name="图层 2"><g id="图层_1-2" data-name="图层 1"><circle class="cls-1" cx="50" cy="50" r="2.1"/><path class="cls-2" d="M50,99.5A49.5,49.5,0,1,1,99.5,50,49.56,49.56,0,0,1,50,99.5Z"/><path class="cls-1" d="M50,1A49,49,0,1,1,1,50,49.06,49.06,0,0,1,50,1m0-1a50,50,0,1,0,50,50A50,50,0,0,0,50,0Z"/><circle class="cls-3" cx="50.88" cy="65.76" r="8.78"/><circle class="cls-4" cx="51.76" cy="22.72" r="4.39"/><path class="cls-5" d="M69.32,52V42C69.32,32.27,61.73,24,52,23.61a18,18,0,0,0-18.66,18V51.77a1.09,1.09,0,0,1-.79,1.05,6.14,6.14,0,0,0-4.46,6.43,6.29,6.29,0,0,0,6.35,5.63H67.33a6.3,6.3,0,0,0,6.35-5.54,6.15,6.15,0,0,0-3.61-6.22A1.26,1.26,0,0,1,69.32,52Z"/><path class="cls-6" d="M31.56,44v7.75a1.09,1.09,0,0,1-.79,1.05,6.14,6.14,0,0,0-4.46,6.43,6.29,6.29,0,0,0,6.35,5.63H65.58a6.3,6.3,0,0,0,6.35-5.54,6.15,6.15,0,0,0-3.61-6.22A1.26,1.26,0,0,1,67.56,52V42C67.56,32.27,60,24,50.22,23.61A18,18,0,0,0,31.79,38.7"/><path class="cls-6" d="M57.9,64.88a8.78,8.78,0,0,1-17.56,0"/><path class="cls-6" d="M45.1,23.6a4.39,4.39,0,1,1,8.07,0"/><path class="cls-7" d="M52.89,32.11s7.12-1.31,8.26,8.45"/><line class="cls-7" x1="61.84" y1="43.36" x2="61.87" y2="44.24"/><line class="cls-8" x1="78.13" y1="82.55" x2="82.5" y2="82.55"/><line class="cls-8" x1="37" y1="82.55" x2="74.33" y2="82.55"/><line class="cls-8" x1="17.5" y1="82.55" x2="27.17" y2="82.55"/><line class="cls-8" x1="31.5" y1="82.55" x2="33.5" y2="82.55"/></g></g></svg>