<svg xmlns="http://www.w3.org/2000/svg" viewBox="0 0 67 60.09"><defs><style>.cls-1{fill:#ff7031;}.cls-2{fill:#56b2ff;}.cls-3{fill:#ffda00;}.cls-11,.cls-12,.cls-4,.cls-5,.cls-6{fill:none;stroke-miterlimit:10;}.cls-4{stroke:#000;}.cls-12,.cls-4,.cls-5{stroke-linecap:round;stroke-width:2px;}.cls-5{stroke:#fff;}.cls-6{stroke:#e84fe8;}.cls-7{fill:#4cd0e9;}.cls-8{fill:#ff5a5a;}.cls-9{fill:#0b6eff;}.cls-10{fill:#ff8d5c;}.cls-11{stroke:#31d2e3;stroke-width:0.25px;}.cls-12{stroke:#020202;}</style></defs><title>消息提醒_1</title><g id="图层_2" data-name="图层 2"><g id="图层_1-2" data-name="图层 1"><circle class="cls-1" cx="34" cy="46" r="8.18"/><circle class="cls-2" cx="34.82" cy="5.91" r="4.09"/><path class="cls-3" d="M51.18,33.15V23.9A17,17,0,0,0,35,6.74,16.77,16.77,0,0,0,17.64,23.5V33a1,1,0,0,1-.74,1,5.72,5.72,0,0,0-4.15,6,5.86,5.86,0,0,0,5.91,5.25H49.33A5.87,5.87,0,0,0,55.25,40a5.73,5.73,0,0,0-3.36-5.79A1.18,1.18,0,0,1,51.18,33.15Z"/><path class="cls-4" d="M16,25.75V33a1,1,0,0,1-.74,1,5.72,5.72,0,0,0-4.15,6A5.86,5.86,0,0,0,17,45.18H47.69A5.87,5.87,0,0,0,53.61,40a5.73,5.73,0,0,0-3.36-5.79,1.18,1.18,0,0,1-.7-1.08V23.9A17,17,0,0,0,33.38,6.74,16.78,16.78,0,0,0,16.22,20.79"/><path class="cls-4" d="M40.55,45.18a8.18,8.18,0,1,1-16.36,0"/><path class="cls-4" d="M28.61,6.73a4.09,4.09,0,1,1,7.52,0"/><path class="cls-5" d="M35.88,14.66s6.64-1.22,7.7,7.87"/><line class="cls-5" x1="44.21" y1="25.14" x2="44.24" y2="25.95"/><circle class="cls-6" cx="53.64" cy="7.55" r="1.23" transform="translate(-0.53 7.14) rotate(-7.58)"/><circle class="cls-7" cx="14.36" cy="6.73" r="1.64"/><rect class="cls-8" x="9.96" y="18.99" width="3.08" height="0.84" rx="0.42" ry="0.42" transform="translate(-10.47 14.28) rotate(-46.22)"/><rect class="cls-8" x="9.96" y="18.99" width="3.08" height="0.84" rx="0.42" ry="0.42" transform="translate(16.63 -2.56) rotate(43.78)"/><rect class="cls-3" x="15.69" y="50.08" width="3.08" height="0.84" rx="0.42" ry="0.42" transform="translate(-31.15 28) rotate(-46.22)"/><rect class="cls-3" x="15.69" y="50.08" width="3.08" height="0.84" rx="0.42" ry="0.42" transform="translate(39.73 2.12) rotate(43.78)"/><circle class="cls-9" cx="7.82" cy="36.18" r="0.82"/><circle class="cls-6" cx="53.64" cy="7.55" r="1.23" transform="translate(-0.53 7.14) rotate(-7.58)"/><rect class="cls-10" x="56.6" y="33.72" width="3.08" height="0.84" rx="0.42" ry="0.42" transform="translate(-6.73 52.49) rotate(-46.22)"/><rect class="cls-10" x="56.6" y="33.72" width="3.08" height="0.84" rx="0.42" ry="0.42" transform="translate(39.78 -30.73) rotate(43.78)"/><circle class="cls-2" cx="59.77" cy="21.05" r="1.23"/><circle class="cls-11" cx="54.86" cy="52.14" r="0.82"/><line class="cls-12" x1="61.63" y1="59.09" x2="66" y2="59.09"/><line class="cls-12" x1="20.5" y1="59.09" x2="57.83" y2="59.09"/><line class="cls-12" x1="1" y1="59.09" x2="10.67" y2="59.09"/><line class="cls-12" x1="15" y1="59.09" x2="17" y2="59.09"/></g></g></svg>