<svg xmlns="http://www.w3.org/2000/svg" viewBox="0 0 72.95 60.6"><defs><style>.cls-1{fill:#4cd2eb;}.cls-2{fill:#ff5a5a;}.cls-3{fill:#ffdc00;}.cls-4{fill:#0b6eff;}.cls-10,.cls-11,.cls-13,.cls-14,.cls-15,.cls-5,.cls-8{fill:none;}.cls-5{stroke:#ea4fea;}.cls-10,.cls-11,.cls-12,.cls-14,.cls-15,.cls-5,.cls-8{stroke-miterlimit:10;}.cls-6{fill:#ff8f5c;}.cls-12,.cls-7{fill:#56b4ff;}.cls-8{stroke:#31d4e5;stroke-width:0.25px;}.cls-9{fill:#ff7031;}.cls-10,.cls-11,.cls-13{stroke:#000;}.cls-10,.cls-13,.cls-14,.cls-15{stroke-linecap:round;}.cls-10,.cls-11,.cls-12,.cls-13,.cls-14,.cls-15{stroke-width:2px;}.cls-12,.cls-15{stroke:#020202;}.cls-13{stroke-linejoin:round;}.cls-14{stroke:#fff;}</style></defs><title>任务处理</title><g id="图层_2" data-name="图层 2"><g id="图层_1-2" data-name="图层 1"><circle class="cls-1" cx="8.17" cy="2.95" r="1.82"/><rect class="cls-2" x="3.29" y="16.56" width="3.41" height="0.93" rx="0.47" ry="0.47" transform="translate(-10.75 8.85) rotate(-46.22)"/><rect class="cls-2" x="3.29" y="16.56" width="3.41" height="0.93" rx="0.47" ry="0.47" transform="translate(13.17 1.28) rotate(43.78)"/><rect class="cls-3" x="9.64" y="51.05" width="3.41" height="0.93" rx="0.47" ry="0.47" transform="translate(-33.7 24.06) rotate(-46.22)"/><rect class="cls-3" x="9.64" y="51.05" width="3.41" height="0.93" rx="0.47" ry="0.47" transform="translate(38.8 6.47) rotate(43.78)"/><circle class="cls-4" cx="0.91" cy="35.63" r="0.91"/><circle class="cls-5" cx="63.74" cy="1.86" r="1.36" transform="translate(0.31 8.43) rotate(-7.58)"/><rect class="cls-6" x="67.02" y="30.9" width="3.41" height="0.93" rx="0.47" ry="0.47" transform="translate(-1.47 59.29) rotate(-46.22)"/><rect class="cls-6" x="67.02" y="30.9" width="3.41" height="0.93" rx="0.47" ry="0.47" transform="translate(40.81 -38.84) rotate(43.78)"/><circle class="cls-7" cx="70.55" cy="16.84" r="1.36"/><circle class="cls-8" cx="65.1" cy="51.33" r="0.91"/><rect class="cls-3" x="17.61" y="19.59" width="44.34" height="33.7" rx="4" ry="4"/><path class="cls-9" d="M21.61,9.84H58a4,4,0,0,1,4,4V26.69a0,0,0,0,1,0,0H17.61a0,0,0,0,1,0,0V13.84A4,4,0,0,1,21.61,9.84Z"/><path class="cls-10" d="M58.41,43.42v6.08a3.67,3.67,0,0,1-3.55,3.78H18.5A3.67,3.67,0,0,1,15,49.51V23.63"/><path class="cls-10" d="M15,19.26V15.39c0-2.09,1.59-4.67,3.55-4.67H54.86a3.67,3.67,0,0,1,3.55,3.78V34.78"/><line class="cls-11" x1="14.95" y1="26.69" x2="58.41" y2="26.69"/><line class="cls-10" x1="58.41" y1="38.21" x2="58.41" y2="39.99"/><rect class="cls-12" x="20.49" y="7.06" width="12.98" height="7.21" rx="2" ry="2" transform="translate(16.32 37.65) rotate(-90)"/><rect class="cls-12" x="39.89" y="6.74" width="12.98" height="7.21" rx="2" ry="2" transform="translate(36.04 56.72) rotate(-90)"/><line class="cls-10" x1="37.12" y1="32.89" x2="53.97" y2="32.89"/><line class="cls-10" x1="37.12" y1="39.99" x2="53.97" y2="39.99"/><line class="cls-10" x1="37.12" y1="47.97" x2="53.97" y2="47.97"/><polyline class="cls-13" points="22.05 31.12 24.71 34.67 30.03 30.23"/><polyline class="cls-13" points="22.05 38.21 24.71 41.76 30.03 37.33"/><polyline class="cls-13" points="22.05 46.19 24.71 49.74 30.03 45.31"/><line class="cls-14" x1="55.75" y1="21.36" x2="55.75" y2="22.25"/><path class="cls-14" d="M53.09,14.27s2.66-.89,2.66,3.55"/><line class="cls-15" x1="67.58" y1="59.6" x2="71.95" y2="59.6"/><line class="cls-15" x1="26.45" y1="59.6" x2="63.79" y2="59.6"/><line class="cls-15" x1="6.95" y1="59.6" x2="16.62" y2="59.6"/><line class="cls-15" x1="20.95" y1="59.6" x2="22.95" y2="59.6"/></g></g></svg>