<svg xmlns="http://www.w3.org/2000/svg" xmlns:xlink="http://www.w3.org/1999/xlink" viewBox="0 0 54.5 53"><defs><style>.cls-1{fill:url(#未命名的渐变_4);}.cls-2,.cls-3,.cls-6{fill:none;}.cls-2{stroke:#fff;}.cls-2,.cls-3,.cls-4,.cls-6{stroke-linecap:round;stroke-miterlimit:10;}.cls-3,.cls-4,.cls-6{stroke:#ef5e2b;}.cls-3,.cls-4{stroke-width:4px;}.cls-4{fill:#fff;}.cls-5{fill:#05b8e2;}.cls-7{fill:#ef5e2b;}</style><linearGradient id="未命名的渐变_4" x1="6" y1="33.37" x2="43.25" y2="33.37" gradientUnits="userSpaceOnUse"><stop offset="0" stop-color="#ff7031"/><stop offset="1" stop-color="#f99450"/></linearGradient></defs><title>待付款</title><g id="图层_2" data-name="图层 2"><g id="图层_1-2" data-name="图层 1"><path class="cls-1" d="M38.49,47.16H10.76A4.76,4.76,0,0,1,6,42.4V24.34a4.76,4.76,0,0,1,4.76-4.76H38.49a4.76,4.76,0,0,1,4.76,4.76V42.4A4.76,4.76,0,0,1,38.49,47.16Z"/><line class="cls-2" x1="14.71" y1="22.48" x2="16.11" y2="22.48"/><line class="cls-2" x1="11.78" y1="22.48" x2="12.93" y2="22.48"/><path class="cls-2" d="M7.67,28.33v-3.9a2,2,0,0,1,1.95-1.95"/><line class="cls-3" x1="2.5" y1="30.27" x2="2.5" y2="27.62"/><path class="cls-3" d="M2.5,22.52V21.41a5.35,5.35,0,0,1,5.35-5.35H39a5.35,5.35,0,0,1,5.35,5.35V41.72A5.35,5.35,0,0,1,39,47.07H7.85A5.35,5.35,0,0,1,2.5,41.72V35.31"/><path class="cls-3" d="M11.09,15.63C12.45,9.72,17.27,5.25,23.19,5c6.17-.25,11.53,4.17,13.14,10.34"/><rect class="cls-4" x="34.5" y="25.66" width="18" height="13" rx="4.5" ry="4.5"/><circle class="cls-5" cx="41.25" cy="31.91" r="2.75"/><circle class="cls-6" cx="3" cy="4" r="2.5"/><circle class="cls-7" cx="44" cy="51" r="2"/><ellipse class="cls-7" cx="46.5" cy="2.5" rx="2.5" ry="0.5"/><ellipse class="cls-7" cx="46.5" cy="2.5" rx="0.5" ry="2.5"/></g></g></svg>