<svg xmlns="http://www.w3.org/2000/svg" viewBox="0 0 56.33 53.09"><defs><style>.cls-1{fill:#ff7031;}.cls-2,.cls-3,.cls-6{fill:none;stroke-miterlimit:10;}.cls-2,.cls-3{stroke:#fff;}.cls-2,.cls-6{stroke-linecap:round;}.cls-4{fill:#ffe443;}.cls-5{fill:#ef5e2b;}.cls-6{stroke:#ef5e2b;stroke-width:4px;}.cls-7{fill:#05b8e2;}</style></defs><title>退款，售后</title><g id="图层_2" data-name="图层 2"><g id="图层_1-2" data-name="图层 1"><circle class="cls-1" cx="35.89" cy="31.66" r="16.83" transform="matrix(0.01, -1, 1, 0.01, 3.85, 67.22)"/><path class="cls-2" d="M39.21,17.56A14.53,14.53,0,0,0,36,17.18"/><path class="cls-2" d="M43.64,19.43a14.44,14.44,0,0,0-2-1.05"/><path class="cls-3" d="M50.37,31.81"/><path class="cls-4" d="M42.55,32.35a.89.89,0,0,1,.85.91.74.74,0,0,1-.28.62.89.89,0,0,1-.59.22l-5.44-.06,0,2.11,5.17.05a1,1,0,1,1,0,2L37,38.2l0,2.61a.74.74,0,0,1-.28.54,1,1,0,0,1-.63.27.9.9,0,0,1-.85-.82l0-2.61L30,38.13a1,1,0,1,1,0-2l5.31.06,0-2.11L29.74,34a.7.7,0,0,1-.58-.28.87.87,0,0,1-.24-.61,1,1,0,0,1,.22-.63.81.81,0,0,1,.63-.24l5.59.06V31l-6.43-7a1.18,1.18,0,0,1-.1-.63.85.85,0,0,1,.32-.56.89.89,0,0,1,.63-.16.85.85,0,0,1,.62.4l5.9,6.38,5.71-6a1.13,1.13,0,0,1,.67-.5.8.8,0,0,1,.65.15.73.73,0,0,1,.33.61,1,1,0,0,1-.24.73l-6.31,6.65V32.3Z"/><path class="cls-5" d="M8.7,27a3.52,3.52,0,0,1-2.57-1.16L.57,19.78a2.16,2.16,0,1,1,3.19-2.91L8.26,21.8a24.91,24.91,0,0,1,9-14.48A2.16,2.16,0,0,1,20,10.72,20.61,20.61,0,0,0,12.25,24a3.51,3.51,0,0,1-2.46,2.87A3.59,3.59,0,0,1,8.7,27Z"/><path class="cls-6" d="M15.67,27.73A19.51,19.51,0,1,0,25.88,14.21"/><path class="cls-6" d="M20.79,18a19.57,19.57,0,0,0-3.12,4.24"/><circle class="cls-7" cx="36.63" cy="2.5" r="2.5" transform="matrix(0.01, -1, 1, 0.01, 33.75, 39.1)"/><circle class="cls-4" cx="10.19" cy="44.23" r="2" transform="translate(-34.14 53.96) rotate(-89.4)"/><ellipse class="cls-5" cx="2.74" cy="39.65" rx="0.5" ry="2.5" transform="matrix(0.01, -1, 1, 0.01, -36.93, 41.97)"/><ellipse class="cls-5" cx="2.74" cy="39.65" rx="2.5" ry="0.5" transform="matrix(0.01, -1, 1, 0.01, -36.93, 41.97)"/><ellipse class="cls-5" cx="9.64" cy="49.72" rx="0.5" ry="2.5" transform="translate(-39.08 35.86) rotate(-63.15)"/><ellipse class="cls-5" cx="9.64" cy="49.72" rx="2.5" ry="0.5" transform="translate(-39.08 35.86) rotate(-63.15)"/></g></g></svg>