<svg xmlns="http://www.w3.org/2000/svg" xmlns:xlink="http://www.w3.org/1999/xlink" viewBox="0 0 50.71 54.08"><defs><style>.cls-1{fill:url(#未命名的渐变_4);}.cls-2,.cls-3,.cls-6{fill:none;stroke-linecap:round;stroke-miterlimit:10;}.cls-2{stroke:#fff;}.cls-3,.cls-6{stroke:#ef5e2b;}.cls-3{stroke-width:4px;}.cls-4{fill:#05b8e2;}.cls-5{fill:#ef5e2b;}</style><linearGradient id="未命名的渐变_4" x1="14.71" y1="31.08" x2="46.71" y2="31.08" gradientUnits="userSpaceOnUse"><stop offset="0" stop-color="#ff7031"/><stop offset="1" stop-color="#f99450"/></linearGradient></defs><title>购物车</title><g id="图层_2" data-name="图层 2"><g id="图层_1-2" data-name="图层 1"><rect class="cls-1" x="14.71" y="19.08" width="32" height="24" rx="2.94" ry="2.94"/><line class="cls-2" x1="22.48" y1="20.33" x2="23.83" y2="20.33"/><line class="cls-2" x1="19.67" y1="20.33" x2="20.77" y2="20.33"/><path class="cls-2" d="M15.71,26V22.2a1.88,1.88,0,0,1,1.87-1.87"/><path class="cls-3" d="M37.18,15.08h7.47a4.07,4.07,0,0,1,4.06,4.06V39a4.07,4.07,0,0,1-4.06,4.06H14.77A4.07,4.07,0,0,1,10.71,39V16.14"/><line class="cls-3" x1="28.83" y1="15.08" x2="33.15" y2="15.08"/><line class="cls-3" x1="17.52" y1="15.08" x2="21.83" y2="15.08"/><path class="cls-3" d="M2,7.08H4.21a6.52,6.52,0,0,1,6.5,6.5v25"/><circle class="cls-4" cx="13.71" cy="50.08" r="4"/><circle class="cls-4" cx="43.71" cy="50.08" r="4"/><circle class="cls-5" cx="2.71" cy="2" r="2" transform="translate(0.44 4.49) rotate(-84.04)"/><circle class="cls-6" cx="31.71" cy="5" r="2.5"/><ellipse class="cls-5" cx="45.21" cy="7.5" rx="2.5" ry="0.5"/><ellipse class="cls-5" cx="45.21" cy="7.5" rx="0.5" ry="2.5"/></g></g></svg>