<svg xmlns="http://www.w3.org/2000/svg" xmlns:xlink="http://www.w3.org/1999/xlink" viewBox="0 0 48.46 52.86"><defs><style>.cls-1{fill:url(#未命名的渐变_4);}.cls-2,.cls-5{fill:none;stroke-linecap:round;stroke-miterlimit:10;}.cls-2{stroke:#fff;}.cls-3{fill:#ffe443;}.cls-4{fill:url(#未命名的渐变_4-2);}.cls-5{stroke:#ef5e2b;stroke-width:4px;}.cls-6{fill:#ef5e2b;}.cls-7{fill:#05b8e2;}</style><linearGradient id="未命名的渐变_4" x1="11.31" y1="30.6" x2="43.09" y2="30.6" gradientUnits="userSpaceOnUse"><stop offset="0" stop-color="#ff7031"/><stop offset="1" stop-color="#f99450"/></linearGradient><linearGradient id="未命名的渐变_4-2" x1="32.68" y1="39.97" x2="48.46" y2="39.97" xlink:href="#未命名的渐变_4"/></defs><title>已付款】</title><g id="图层_2" data-name="图层 2"><g id="图层_1-2" data-name="图层 1"><path class="cls-1" d="M38,12H16.4a5.32,5.32,0,0,0-5.08,5.53V43.67A5.32,5.32,0,0,0,16.4,49.2H31.57c-4.7-.66-2.3-4.69-2.3-9.56A9.65,9.65,0,0,1,43.09,30.9V17.53A5.32,5.32,0,0,0,38,12Z"/><line class="cls-2" x1="27.44" y1="13.68" x2="24.64" y2="13.68"/><path class="cls-2" d="M22.42,13.68h-5a4.84,4.84,0,0,0-4.62,5v3"/><path class="cls-3" d="M30.63,27.18v1.51H28.05v1.15h2.57v1.53H28.05v2.1H25.73v-2.1H23.07V29.84h2.66V28.69H23.07V27.18h2.14l-2.86-5h2.48q1.69,3.49,2.13,4.6H27l.14-.4q.13-.39,1.05-2.28l.91-1.92h2.35l-2.94,5Z"/><path class="cls-4" d="M40.57,32.08A7.89,7.89,0,1,0,48.46,40,7.89,7.89,0,0,0,40.57,32.08Zm5.24,5.37-5.43,5.43a1.93,1.93,0,0,1-2.73,0l-2.31-2.31a.78.78,0,0,1,1.1-1.1l2.31,2.31a.37.37,0,0,0,.52,0l5.43-5.43a.78.78,0,0,1,1.1,1.1Z"/><path class="cls-5" d="M8,35.66v8.88a6.09,6.09,0,0,0,5.82,6.32H38.09a11.06,11.06,0,1,1,6.3-20.93V14.62A6.09,6.09,0,0,0,38.57,8.3H13.84A6.09,6.09,0,0,0,8,14.62v2.17"/><line class="cls-5" x1="8.03" y1="25.21" x2="8.03" y2="29.5"/><circle class="cls-6" cx="43.75" cy="3" r="2"/><ellipse class="cls-6" cx="5.25" cy="2.5" rx="2.5" ry="0.5"/><ellipse class="cls-6" cx="5.25" cy="2.5" rx="0.5" ry="2.5"/><ellipse class="cls-7" cx="2.25" cy="45.5" rx="0.5" ry="2.5" transform="translate(-39.55 27.4) rotate(-63.75)"/><ellipse class="cls-7" cx="2.25" cy="45.5" rx="2.5" ry="0.5" transform="translate(-39.55 27.4) rotate(-63.75)"/></g></g></svg>