<svg xmlns="http://www.w3.org/2000/svg" viewBox="0 0 67.29 58"><defs><style>.cls-1{fill:#4cd2eb;}.cls-2{fill:#ff5a5a;}.cls-3{fill:#ffdc00;}.cls-4{fill:#0b6eff;}.cls-12,.cls-14,.cls-5,.cls-8,.cls-9{fill:none;}.cls-5{stroke:#ea4fea;}.cls-5,.cls-8,.cls-9{stroke-miterlimit:10;}.cls-6{fill:#ff8f5c;}.cls-7{fill:#56b4ff;}.cls-8{stroke:#31d4e5;stroke-width:0.25px;}.cls-12,.cls-9{stroke:#020202;}.cls-12,.cls-14,.cls-9{stroke-linecap:round;stroke-width:2px;}.cls-10{fill:#ff694b;}.cls-11{fill:#ffdf00;}.cls-12,.cls-14{stroke-linejoin:round;}.cls-13{fill:#fe0;}.cls-14{stroke:#fff;}.cls-15{fill:#b943ec;}</style></defs><title>生日</title><g id="图层_2" data-name="图层 2"><g id="图层_1-2" data-name="图层 1"><circle class="cls-1" cx="13.92" cy="2.16" r="1.81" transform="translate(9.27 15.46) rotate(-79.57)"/><rect class="cls-2" x="6.56" y="14.92" width="3.4" height="0.93" rx="0.46" ry="0.46" transform="translate(-7.43 7.74) rotate(-35.79)"/><rect class="cls-2" x="6.56" y="14.92" width="3.4" height="0.93" rx="0.46" ry="0.46" transform="translate(15.91 -0.32) rotate(54.21)"/><rect class="cls-3" x="6.57" y="49.87" width="3.4" height="0.93" rx="0.46" ry="0.46" transform="translate(-27.87 14.34) rotate(-35.79)"/><rect class="cls-3" x="6.57" y="49.87" width="3.4" height="0.93" rx="0.46" ry="0.46" transform="translate(44.26 14.19) rotate(54.21)"/><circle class="cls-4" cx="0.9" cy="32.88" r="0.9" transform="translate(-31.6 27.82) rotate(-79.57)"/><circle class="cls-5" cx="55.04" cy="2.89" r="1.36" transform="translate(1.03 13.89) rotate(-14.52)"/><rect class="cls-6" x="61.83" y="31" width="3.4" height="0.93" rx="0.46" ry="0.46" transform="translate(0.25 63.44) rotate(-53.15)"/><rect class="cls-6" x="61.83" y="31" width="3.4" height="0.93" rx="0.46" ry="0.46" transform="translate(31.56 -31.81) rotate(36.85)"/><circle class="cls-7" cx="63.58" cy="16.88" r="1.36" transform="translate(-1.57 7.8) rotate(-6.93)"/><circle class="cls-8" cx="62.34" cy="51.66" r="0.9" transform="translate(-5.78 7.9) rotate(-6.93)"/><line class="cls-9" x1="61.92" y1="57" x2="66.29" y2="57"/><line class="cls-9" x1="20.79" y1="57" x2="58.13" y2="57"/><line class="cls-9" x1="1.29" y1="57" x2="10.96" y2="57"/><line class="cls-9" x1="15.29" y1="57" x2="17.29" y2="57"/><path class="cls-10" d="M19.9,36H49.23a3.22,3.22,0,0,1,3.22,3.22V52a0,0,0,0,1,0,0H16.68a0,0,0,0,1,0,0V39.24A3.22,3.22,0,0,1,19.9,36Z"/><path class="cls-11" d="M53.21,38.81s0-2.8-2.28-2.8H19.6s-2.92-.76-2.92,2.8v4.54a17.07,17.07,0,0,1,8.8.15c2.62.88,5.5.11,7.28-.37.67,5.06,6.76-1,8.75-.7,1.05,4.23,2.57.43,6.53-.82C49.41,42.86,54,43.62,53.21,38.81Z"/><path class="cls-12" d="M14.4,44.87V38.3a3,3,0,0,1,3-3H47.89a3,3,0,0,1,3,3V52H14.4V49.21"/><path class="cls-7" d="M23.72,20.79H44.65a4,4,0,0,1,4,4v2a.09.09,0,0,1-.09.09H19.82a.09.09,0,0,1-.09-.09v-2A4,4,0,0,1,23.72,20.79Z"/><path class="cls-12" d="M50.93,39.95c0,1.65-.76,5.2-3.81.63-.76,4.57-6.09,4.57-7.61,0,0,5.33-6.85,6.09-9.13,0,2.15,5.75-6.85,4.57-7.61.76-3,5.33-8.37-.13-8.37-.13"/><rect class="cls-11" x="19.72" y="26.12" width="28.92" height="6.09"/><rect class="cls-7" x="24.29" y="10.89" width="3.81" height="9.89" rx="1.9" ry="1.9"/><rect class="cls-11" x="31.9" y="10.89" width="3.81" height="9.89" rx="1.9" ry="1.9"/><rect class="cls-10" x="38.75" y="10.89" width="3.81" height="9.89" rx="1.9" ry="1.9"/><rect class="cls-10" x="19.72" y="30.68" width="28.92" height="3.81"/><path class="cls-12" d="M47.13,29.78v5.4a.07.07,0,0,1-.07.07H18.27a.07.07,0,0,1-.07-.07V23.83a3,3,0,0,1,3-3H44.08c1.68,0,3,.36,3,2"/><line class="cls-12" x1="18.2" y1="26.88" x2="44.08" y2="26.88"/><line class="cls-12" x1="21.25" y1="31.45" x2="47.13" y2="31.45"/><path class="cls-13" d="M25.81,1s-9.13,9.13-1.52,9.89c0,0,3.81,0,3-4.57S25.81,5.57,25.81,1Z"/><path class="cls-10" d="M34.95,1s-9.13,9.13-1.52,9.89c0,0,3.81,0,3-4.57S34.95,5.57,34.95,1Z"/><path class="cls-13" d="M42.56,1S33.42,10.13,41,10.89c0,0,3.81,0,3-4.57S42.56,5.57,42.56,1Z"/><polyline class="cls-12" points="26.57 18.7 26.57 20.79 22.77 20.79 22.77 10.89 26.57 10.89 26.57 15.08"/><path class="cls-12" d="M25.81,1s-9.13,9.13-1.52,9.89c0,0,3.81,0,3-4.57S25.81,5.57,25.81,1Z"/><rect class="cls-12" x="30.38" y="10.89" width="3.81" height="9.89"/><path class="cls-12" d="M34.39,4.21c-.54-1.07-1,.21-1-3.21,0,0-9.13,9.13-1.52,9.89a3.15,3.15,0,0,0,3.13-3"/><rect class="cls-12" x="37.23" y="10.89" width="3.81" height="9.89"/><path class="cls-12" d="M40.28,1s-9.13,9.13-1.52,9.89c0,0,3.81,0,3-4.57S40.28,5.57,40.28,1Z"/><line class="cls-12" x1="47.13" y1="26.12" x2="47.13" y2="26.88"/><path class="cls-14" d="M45.6,37.54c1.52,0,3,0,3,1.52"/><line class="cls-14" x1="21.25" y1="23.83" x2="22.77" y2="23.83"/><line class="cls-14" x1="41.8" y1="29.16" x2="44.84" y2="29.16"/><line class="cls-14" x1="47.89" y1="45.91" x2="47.89" y2="49.71"/><circle class="cls-11" cx="22.77" cy="48.19" r="1.52" transform="translate(-26.91 67.49) rotate(-85.94)"/><circle class="cls-7" cx="31.9" cy="48.19" r="1.52" transform="translate(-18.43 76.6) rotate(-85.94)"/><circle class="cls-15" cx="39.51" cy="48.19" r="1.52" transform="translate(-11.35 84.2) rotate(-85.94)"/></g></g></svg>