<svg xmlns="http://www.w3.org/2000/svg" viewBox="0 0 73.99 59.47"><defs><style>.cls-1{fill:#4cd2eb;}.cls-2{fill:#ff5a5a;}.cls-3{fill:#ffdc00;}.cls-4{fill:#0b6eff;}.cls-11,.cls-13,.cls-5,.cls-8,.cls-9{fill:none;}.cls-5{stroke:#ea4fea;}.cls-5,.cls-8,.cls-9{stroke-miterlimit:10;}.cls-6{fill:#ff8f5c;}.cls-7{fill:#56b4ff;}.cls-8{stroke:#31d4e5;stroke-width:0.25px;}.cls-11,.cls-9{stroke:#020202;}.cls-11,.cls-13,.cls-9{stroke-linecap:round;stroke-width:2px;}.cls-10{fill:#ffdf00;}.cls-11,.cls-13{stroke-linejoin:round;}.cls-12{fill:#ff694b;}.cls-13{stroke:#fff;}</style></defs><title>学校班级</title><g id="图层_2" data-name="图层 2"><g id="图层_1-2" data-name="图层 1"><circle class="cls-1" cx="13.92" cy="3.64" r="1.81" transform="translate(7.82 16.67) rotate(-79.57)"/><rect class="cls-2" x="6.56" y="16.39" width="3.4" height="0.93" rx="0.46" ry="0.46" transform="translate(-8.29 8.02) rotate(-35.79)"/><rect class="cls-2" x="6.56" y="16.39" width="3.4" height="0.93" rx="0.46" ry="0.46" transform="translate(17.1 0.29) rotate(54.21)"/><rect class="cls-3" x="6.57" y="51.34" width="3.4" height="0.93" rx="0.46" ry="0.46" transform="translate(-28.73 14.62) rotate(-35.79)"/><rect class="cls-3" x="6.57" y="51.34" width="3.4" height="0.93" rx="0.46" ry="0.46" transform="translate(45.46 14.8) rotate(54.21)"/><circle class="cls-4" cx="0.9" cy="34.35" r="0.9" transform="translate(-33.04 29.02) rotate(-79.57)"/><circle class="cls-5" cx="64.04" cy="3.36" r="1.36" transform="translate(1.2 16.16) rotate(-14.52)"/><rect class="cls-6" x="70.83" y="31.48" width="3.4" height="0.93" rx="0.46" ry="0.46" transform="translate(3.48 70.83) rotate(-53.15)"/><rect class="cls-6" x="70.83" y="31.48" width="3.4" height="0.93" rx="0.46" ry="0.46" transform="translate(33.64 -37.12) rotate(36.85)"/><circle class="cls-7" cx="72.58" cy="17.35" r="1.36" transform="translate(-1.56 8.89) rotate(-6.93)"/><circle class="cls-8" cx="71.34" cy="52.13" r="0.9" transform="translate(-5.77 8.99) rotate(-6.93)"/><line class="cls-9" x1="67.92" y1="58.47" x2="72.29" y2="58.47"/><line class="cls-9" x1="26.79" y1="58.47" x2="64.13" y2="58.47"/><line class="cls-9" x1="7.29" y1="58.47" x2="16.96" y2="58.47"/><line class="cls-9" x1="21.29" y1="58.47" x2="23.29" y2="58.47"/><path class="cls-10" d="M54.14,28.13V21.54a2.8,2.8,0,0,0-1.36-2.4L43,13.26a2.8,2.8,0,0,0-3,0L31,19.13a2.8,2.8,0,0,0-1.28,2.35v6.64a2.8,2.8,0,0,1-2.8,2.8H19a2.8,2.8,0,0,0-2.8,2.8V53.09a.62.62,0,0,0,.62.62H66.07a.72.72,0,0,0,.72-.72V33.73a2.8,2.8,0,0,0-2.8-2.8H56.93A2.8,2.8,0,0,1,54.14,28.13Z"/><path class="cls-7" d="M34.68,36.83H45.75a2.48,2.48,0,0,1,2.48,2.48V52.87a0,0,0,0,1,0,0h-16a0,0,0,0,1,0,0V39.32A2.48,2.48,0,0,1,34.68,36.83Z"/><path class="cls-11" d="M32.15,36.83H43.21a2.48,2.48,0,0,1,2.48,2.48V52.87a0,0,0,0,1,0,0h-16a0,0,0,0,1,0,0V39.32A2.48,2.48,0,0,1,32.15,36.83Z"/><circle class="cls-12" cx="38.95" cy="25.02" r="4.22" transform="translate(11.23 62.1) rotate(-85.94)"/><path class="cls-11" d="M63.42,39V33.3a2.37,2.37,0,0,0-2.37-2.37H50.76V21.7a3.08,3.08,0,0,0-1.49-2.64l-11.16-6.7-10.4,6.69a3.08,3.08,0,0,0-1.41,2.59v9.29H15.16a2.37,2.37,0,0,0-2.37,2.37V39"/><line class="cls-11" x1="63.42" y1="43.51" x2="63.42" y2="41.9"/><polyline class="cls-11" points="12.79 45.43 12.79 53.71 63.42 53.71 63.42 47.6"/><path class="cls-11" d="M41.28,26.32a4.21,4.21,0,1,1-.2-3.1"/><line class="cls-11" x1="38.11" y1="3.08" x2="38.11" y2="12.37"/><path class="cls-12" d="M39.79,9.36V2a1,1,0,0,1,1.5-.87l2.43,1.4L46,3.84a1.12,1.12,0,0,1,0,1.94l-2.25,1.3Z"/><path class="cls-9" d="M40.93,7.73,38.11,9.36V2a1,1,0,0,1,1.5-.87L42,2.54l2.25,1.3a1.12,1.12,0,0,1,0,1.94"/><path class="cls-13" d="M55.82,35.15s5.06-.84,5.06,4.22"/><line class="cls-13" x1="42.32" y1="41.9" x2="42.32" y2="45.27"/></g></g></svg>