<svg xmlns="http://www.w3.org/2000/svg" viewBox="0 0 74.29 57.97"><defs><style>.cls-1{fill:#4cd2eb;}.cls-2{fill:#ff5a5a;}.cls-3{fill:#ffdc00;}.cls-4{fill:#0b6eff;}.cls-11,.cls-12,.cls-5,.cls-8,.cls-9{fill:none;}.cls-5{stroke:#ea4fea;}.cls-12,.cls-5,.cls-8,.cls-9{stroke-miterlimit:10;}.cls-6{fill:#ff8f5c;}.cls-7{fill:#56b4ff;}.cls-8{stroke:#31d4e5;stroke-width:0.25px;}.cls-11,.cls-9{stroke:#020202;}.cls-11,.cls-12,.cls-9{stroke-linecap:round;stroke-width:2px;}.cls-10{fill:#ffdf00;}.cls-11{stroke-linejoin:round;}.cls-12{stroke:#f9f9f9;}</style></defs><title>特长</title><g id="图层_2" data-name="图层 2"><g id="图层_1-2" data-name="图层 1"><circle class="cls-1" cx="13.92" cy="2.14" r="1.81" transform="translate(9.3 15.44) rotate(-79.57)"/><rect class="cls-2" x="6.56" y="14.89" width="3.4" height="0.93" rx="0.46" ry="0.46" transform="translate(-7.42 7.73) rotate(-35.79)"/><rect class="cls-2" x="6.56" y="14.89" width="3.4" height="0.93" rx="0.46" ry="0.46" transform="translate(15.89 -0.33) rotate(54.21)"/><rect class="cls-3" x="6.57" y="49.84" width="3.4" height="0.93" rx="0.46" ry="0.46" transform="translate(-27.85 14.33) rotate(-35.79)"/><rect class="cls-3" x="6.57" y="49.84" width="3.4" height="0.93" rx="0.46" ry="0.46" transform="matrix(0.58, 0.81, -0.81, 0.58, 44.24, 14.18)"/><circle class="cls-4" cx="0.9" cy="32.85" r="0.9" transform="translate(-31.57 27.79) rotate(-79.57)"/><circle class="cls-5" cx="64.04" cy="1.86" r="1.36" transform="translate(1.58 16.11) rotate(-14.52)"/><rect class="cls-6" x="70.83" y="29.98" width="3.4" height="0.93" rx="0.46" ry="0.46" transform="translate(4.68 70.23) rotate(-53.15)"/><rect class="cls-6" x="70.83" y="29.98" width="3.4" height="0.93" rx="0.46" ry="0.46" transform="translate(32.74 -37.42) rotate(36.85)"/><circle class="cls-7" cx="72.58" cy="15.85" r="1.36" transform="translate(-1.38 8.88) rotate(-6.93)"/><circle class="cls-8" cx="71.34" cy="50.63" r="0.9" transform="translate(-5.59 8.98) rotate(-6.93)"/><line class="cls-9" x1="68.92" y1="56.97" x2="73.29" y2="56.97"/><line class="cls-9" x1="27.79" y1="56.97" x2="65.13" y2="56.97"/><line class="cls-9" x1="8.29" y1="56.97" x2="17.96" y2="56.97"/><line class="cls-9" x1="22.29" y1="56.97" x2="24.29" y2="56.97"/><circle class="cls-10" cx="40.95" cy="14.71" r="13.23"/><circle class="cls-11" cx="38.47" cy="14.71" r="13.23"/><path class="cls-7" d="M67.29,51.1a24.81,24.81,0,0,0-49.37,0Z"/><path class="cls-11" d="M53.19,32.49a24.82,24.82,0,0,0-32.41,5.57"/><path class="cls-11" d="M56.48,34.86a9.09,9.09,0,0,0-1.4-1.07"/><path class="cls-11" d="M17.92,42.51a24.65,24.65,0,0,0-2.48,8.59H64.81a24.68,24.68,0,0,0-4.88-12.46q-.5-.66-1-1.28"/><path class="cls-12" d="M40.13,5.62s8.27,0,7.44,11.58"/><line class="cls-12" x1="53.29" y1="37.97" x2="53.29" y2="43.97"/></g></g></svg>