<svg xmlns="http://www.w3.org/2000/svg" xmlns:xlink="http://www.w3.org/1999/xlink" viewBox="0 0 105.77 66.04"><defs><style>.cls-1{fill:#6fba2c;stroke:#007f41;stroke-width:0.75px;}.cls-2,.cls-3,.cls-6,.cls-7{fill:#fff100;}.cls-10,.cls-2,.cls-3,.cls-4,.cls-5,.cls-6,.cls-7,.cls-8,.cls-9{stroke:#95452a;}.cls-2{stroke-linejoin:round;}.cls-10,.cls-2,.cls-3{stroke-width:0.75px;}.cls-10,.cls-4,.cls-5,.cls-8,.cls-9{fill:none;}.cls-4{stroke-width:0.78px;}.cls-5{stroke-width:0.82px;}.cls-6{stroke-width:0.73px;}.cls-7{stroke-width:0.65px;}.cls-8{stroke-width:0.68px;}.cls-9{stroke-width:0.71px;}.cls-11,.cls-13{fill:#231815;}.cls-12,.cls-14,.cls-16{fill:#fff;}.cls-12,.cls-14{stroke:#fff;}.cls-12{stroke-width:0.09px;}.cls-13{stroke:#231815;stroke-width:0.07px;}.cls-14{stroke-width:0.07px;}.cls-15{stroke:#f08300;stroke-width:0.4px;fill:url(#radial-gradient);}.cls-17{fill:#ffd900;}</style><radialGradient id="radial-gradient" cx="2184.04" cy="-693.85" r="9.84" gradientTransform="matrix(0.66, 0, 0, 0.62, -1420.19, 480.32)" gradientUnits="userSpaceOnUse"><stop offset="0.19" stop-color="#fff100"/><stop offset="0.59" stop-color="#f8c20e"/><stop offset="1" stop-color="#f18e1d"/></radialGradient></defs><title>资源 1</title><g id="图层_2" data-name="图层 2"><g id="圖層_1" data-name="圖層 1"><path class="cls-1" d="M104.24,52.36c0-.66-1.41-2.08-1.87-2.5a5.42,5.42,0,0,0-2.64-1.4c-2.53-.51-4,3.14-4.87,4.73-.51.93-1.9,2.13-.53,3,.9.58,2.3,0,3.28,0a8.58,8.58,0,0,0,4.11-1.63c.56-.36,2.42-1.48,2.51-2.15A.06.06,0,0,0,104.24,52.36Z"/><path class="cls-1" d="M91,56.7c.14-.41-.06-.92-.35-1.73a6.15,6.15,0,0,0-2-2.85c-.91-.73-2-1.67-3.24-1.33-2.22.62-6.53,4.15-5.61,6.72s5.3,1.24,7.09,1A10.64,10.64,0,0,0,88.77,58c.32-.1,1.09-.41,1.09-.41C90.53,57.29,90.86,57,91,56.7Z"/><path class="cls-2" d="M71.44,60.77a16,16,0,0,0,4.31-2c4.15-2.5,7.65-4.1,12.7-4.35a26.62,26.62,0,0,1,3.09.13A17.06,17.06,0,0,0,99.41,53a34.84,34.84,0,0,0,3.66-1.85c.39-.22,1.44-1.31,1.9-1.17.69.19.35,1.55.26,2.08a8.94,8.94,0,0,1-2.48,4.88,19,19,0,0,1-4.87,3.56,31.33,31.33,0,0,1-9.11,2.76c-1,.2-8.49,1.65-8.77,2.45.19-.55.41-1.11.63-1.64-1.74-.69-3.57-.94-5.17-1.93C74,61.19,73.41,60.46,71.44,60.77Z"/><path class="cls-3" d="M59,47.24s20.19-.32,22.11,8.06c0,0,1.13,3.18-1.8,4.56,0,0-7.45,1.48-8.35-.75Z"/><path class="cls-3" d="M71.53,51.37S57.77,44,50.1,53.81a3.75,3.75,0,0,0-.41,4.09c.9,1.44,3.57,1.5,5.15,1.64,0,0,2.14,4.56,9.81-.43a6.82,6.82,0,0,0,4.5,4.23A6.39,6.39,0,0,0,77.4,58"/><path class="cls-4" d="M61.83,51.39s-8.71,1.56-7,8.25"/><path class="cls-5" d="M69.26,54.58s-3.7,1.28-4.68,4.63"/><path class="cls-6" d="M7.7,44.53s22.39-.27,24.52,6.95c0,0,1.25,2.75-2,3.93,0,0-8.26,1.28-9.26-.64Z"/><path class="cls-7" d="M17.17,46.81S6.77,39.39,1,49.25a4.73,4.73,0,0,0-.31,4.09c.68,1.44,2.69,1.5,3.89,1.64,0,0,1.62,4.56,7.42-.43.56,1.92,1.77,3.7,3.4,4.23,3.17,1,5.78-1.4,6.24-5.39"/><path class="cls-8" d="M9.84,46.83s-6.59,1.56-5.27,8.25"/><path class="cls-9" d="M15.45,50a6.94,6.94,0,0,0-3.54,4.63"/><path class="cls-3" d="M21.05,49.78c5.11-3.52.49-9.64-3.21-11.85-2.49-1.5-9-4.36-10.86-.52-1.31,2.75,1.19,5,3.31,6.37a22.11,22.11,0,0,1,5.78,4.86C17.34,50.19,19,51.19,21.05,49.78Z"/><path class="cls-2" d="M43.43,15.56a8.25,8.25,0,0,1-.06-2.19,19.14,19.14,0,0,1,.23-3.3c.86-5,4.68-8.06,9.65-9.45C55.57,0,57.81.73,59.82,1.8A8.77,8.77,0,0,1,63.2,5c.86,1.45.54,2.67.85,4.2l2.15.56.45.24c2,1,4,3,4.25,5.27a8.47,8.47,0,0,1-2,5.91c-.29.38-3.82,4.72-3.72,4.79.92.68,2.16.81,3.1,1.54,3.51,2.74,3.91,7.79,2,11.48a17.11,17.11,0,0,1-3,4.24,11.27,11.27,0,0,1,.71,1.36A4.62,4.62,0,0,1,63.33,51c-.82,0-1.55-.53-2.18,0a25.43,25.43,0,0,0-2,2.34,25.3,25.3,0,0,1-2.6,2.47A29.92,29.92,0,0,1,39,62.29,35,35,0,0,1,30.44,62c-2.2-.49-4.46-.73-6.62-1.36-2.71-.78-6.2-2.06-8.21-4L13.89,54.9l-.7-1a8,8,0,0,1-1.66-5c.09-1.75,1-3.34,1.18-5.08s-.67-3-1.31-4.5a37.79,37.79,0,0,1-1.81-4.48A7.94,7.94,0,0,1,9.3,32.5c0-.62.24-1.38-.36-1.83a17.38,17.38,0,0,1-3.64-3c-.83-1.06-1.41-3-.66-4.27l.22-.35c-1.45-1.79-2.73-3.63-2.62-6,.18-3.85,3.45-7.15,7.08-8.59a12.17,12.17,0,0,1,3.55-.82,10.75,10.75,0,0,1,5.92,1.13,5.75,5.75,0,0,1,2,2c.12.18,1.26,1.9.86,2.12,1.34-.75,2.43-1.64,4-1.81a19.29,19.29,0,0,1,4.42.27A60.09,60.09,0,0,1,37.77,13,23,23,0,0,1,43.43,15.56Z"/><path class="cls-10" d="M64.48,9.32c-2.23-.33-3.73-.57-5.54.92a29.56,29.56,0,0,0-3.42,3.92"/><path class="cls-10" d="M65.48,26.21c-5.61-2.35-12.78,3.42-11.06,9"/><path class="cls-10" d="M63.82,34c-2.56-1.82-5.22,1-5.36,3.4-.15,2.66,1.71,6.4,3.62,8.3"/><path class="cls-10" d="M9.45,31.53a8.56,8.56,0,0,1,3-7.68"/><path class="cls-11" d="M45.24,34.49c.35,5.26-2.31,9.7-5.94,9.92s-6.85-3.86-7.2-9.11,2.32-9.7,5.95-9.92S44.9,29.24,45.24,34.49Z"/><path class="cls-12" d="M40.36,38.71c.31,2.86-.74,5.3-2.34,5.46s-3.15-2-3.45-4.88.74-5.3,2.34-5.46S40.06,35.86,40.36,38.71Z"/><path class="cls-13" d="M22.93,37.55c1.66,4.15,1.12,8.18-1.2,9s-5.53-1.87-7.19-6-1.11-8.17,1.21-9S21.28,33.41,22.93,37.55Z"/><path class="cls-14" d="M22,41.17c1,2.18.73,4.37-.56,4.88s-3.11-.85-4.09-3-.74-4.37.55-4.88S21.05,39,22,41.17Z"/><path class="cls-10" d="M58.39,47.1a5.7,5.7,0,0,0,2.07,2.77A8.2,8.2,0,0,0,63,51.05"/><path class="cls-1" d="M44.88,6.06c-3.07-1.27-5.12-1.91-8.56-1.62-3.69.33-7,2.05-10.43,3.35-2.89,1.09-5.48,6.37-9.16,3.72-1.34-1-3.79-3.17-2.89-5,.61-1.24,2.33-.73,3.57-1,2.36-.56-10.22-.38-9.71,4.17C8.12,13.54,12.33,19,17.25,17c-3.26.23-5.73-.77-8.71,1a12.12,12.12,0,0,0-5.19,8.9c0,3.07,1.71,4.21,3.61,6.36-2.29-2.59-1.42-5.56.81-7.82,1-1,5-4.1,6.44-2.14.39.53-.58,2.72-.42,3.59a8.46,8.46,0,0,0,6.47,6.29c.94.21,2,.53,2.94.68s1.51-.28,2.41-.4a5.73,5.73,0,0,1-5.22-2.19c-.57-.63-2.8-4.8-1.19-5.14.34-.07,2.42,3,3.12,3.55a6.47,6.47,0,0,0,7,.55c-1.86,1-3.56-.91-4-2.49a6.89,6.89,0,0,1,1.41-5.64c2.38-3,7.68-2.69,11.11-3.77,2-.63,5.39-1.94,5.76-4.14.22-1.3-.21-2.71-.09-4A9.79,9.79,0,0,1,45,5.78"/><path class="cls-15" d="M27,44.77s3.06-2.4,3.34-2.55A6.09,6.09,0,0,1,35.47,42a5.88,5.88,0,0,1,3.6,6.72c-1.06,3.75-5.48,6.32-8.8,8.1-1.67.89-6.28-.73-7.74-1.43-4.24-2-6.5-8-1.53-10.63A6.77,6.77,0,0,1,27,44.77Z"/><path class="cls-16" d="M24.47,47.66a2.62,2.62,0,0,1-2.91,2.25,2.54,2.54,0,0,1-2.39-2.73,2.62,2.62,0,0,1,2.9-2.25A2.56,2.56,0,0,1,24.47,47.66Z"/><path class="cls-10" d="M59,39.94c.89-1.83,3.83-3.9,5.42-1.4"/><path class="cls-17" d="M42.87,42.91c.42-2.14,1.65-3.54,4.07-3.57,1.79,0,4.11.67,5,2.28-.7-1.32-3.59-1.38-4.84-1.16s-4.09,1.2-4.25,2.62"/><path class="cls-3" d="M34.35,25.17a.44.44,0,0,1-.52-.13c1.59-3.71,7.57-5.85,9.42-1.06"/><path class="cls-10" d="M16.82,28.1c-.08-1.71-2.84-1.7-4-1.12-1.52.74-1.88,2.29-1.72,3.82"/></g></g></svg>