<svg xmlns="http://www.w3.org/2000/svg" viewBox="0 0 37.22 40"><defs><style>.cls-1{fill:#a4a4a4;}</style></defs><title>吐槽</title><g id="图层_2" data-name="图层 2"><g id="图层_1-2" data-name="图层 1"><path class="cls-1" d="M7.47,0H3.17A1.58,1.58,0,0,0,1.6,1.46L0,22.16a1.58,1.58,0,0,0,1.57,1.7h5.9A1.58,1.58,0,0,0,9,22.28V1.58A1.58,1.58,0,0,0,7.47,0Z"/><path class="cls-1" d="M23.58,23.71S25.49,30.74,25,34s-1.68,6-4.36,6c-.8,0-2.14-.59-2.14-2.75,0-2.44.38-6.35-7.88-13.15-.15-4.28,0-21.64,0-21.64S11,0,15.47,0H30.69s1.45.38,2.52,4.21,3.67,14.76,4,17.2A2.08,2.08,0,0,1,35,23.86Z"/></g></g></svg>