<svg xmlns="http://www.w3.org/2000/svg" viewBox="0 0 37.22 40">
    <defs>
        <style>
            .cls-1{fill:#fb8745;}
        </style>
    </defs>
    <title>
        点赞
    </title>
    <g id="图层_2" data-name="图层 2">
        <g id="图层_1-2" data-name="图层 1">
            <path d="M7.47,40H3.17A1.58,1.58,0,0,1,1.6,38.54L0,17.84a1.58,1.58,0,0,1,1.57-1.7h5.9A1.58,1.58,0,0,1,9,17.71v20.7A1.58,1.58,0,0,1,7.47,40Z" class="cls-1"/>
            <path d="M23.58,16.29S25.49,9.25,25,6s-1.68-6-4.36-6c-.8,0-2.14.59-2.14,2.75,0,2.44.38,6.35-7.88,13.15-.15,4.28,0,21.64,0,21.64S11,40,15.47,40H30.69s1.45-.38,2.52-4.21,3.67-14.76,4-17.2A2.08,2.08,0,0,0,35,16.13Z" class="cls-1"/>
        </g>
    </g>
</svg>
