<svg xmlns="http://www.w3.org/2000/svg" viewBox="0 0 100 100"><defs><style>.cls-1{fill:#bad6f7;}.cls-2{fill:#9b7b7e;}.cls-3{fill:#ffdf00;}.cls-4{fill:#ffa32f;}.cls-5,.cls-6,.cls-8{fill:none;stroke-miterlimit:10;}.cls-5,.cls-8{stroke:#9a7b7e;}.cls-5{stroke-linecap:round;}.cls-6{stroke:#fff;}.cls-7{fill:#ffa248;}.cls-9{fill:#fbfbfb;}.cls-10{fill:#fff;}</style></defs><title>微商城</title><g id="图层_2" data-name="图层 2"><g id="图层_1-2" data-name="图层 1"><path class="cls-1" d="M50,99.5A49.5,49.5,0,1,1,99.5,50,49.56,49.56,0,0,1,50,99.5Z"/><path class="cls-2" d="M50,1A49,49,0,1,1,1,50,49.06,49.06,0,0,1,50,1m0-1a50,50,0,1,0,50,50A50,50,0,0,0,50,0Z"/><path class="cls-3" d="M23.78,33.58h54a0,0,0,0,1,0,0V74.25a2.37,2.37,0,0,1-2.37,2.37H26.15a2.37,2.37,0,0,1-2.37-2.37V33.58A0,0,0,0,1,23.78,33.58Z"/><path class="cls-4" d="M81.19,34.14H20.4a1.33,1.33,0,0,1-1.24-1.76l2.72-8.09a1.31,1.31,0,0,1,1.24-.9H78.46a1.31,1.31,0,0,1,1.24.9l2.72,8.09A1.33,1.33,0,0,1,81.19,34.14Z"/><path class="cls-5" d="M39.18,22.81h37.7a1.32,1.32,0,0,1,1.24.95l2.72,8.52a1.39,1.39,0,0,1-1.24,1.86H18.81a1.39,1.39,0,0,1-1.24-1.86l2.72-8.52a1.32,1.32,0,0,1,1.24-.95H32.62"/><polyline class="cls-5" points="35.72 22.82 36.26 22.82 36.85 22.82 37.47 22.82"/><line class="cls-5" x1="22.19" y1="56.04" x2="22.19" y2="52.08"/><line class="cls-6" x1="76.22" y1="63.59" x2="63.51" y2="77.19"/><line class="cls-6" x1="76.22" y1="54.53" x2="52.91" y2="77.19"/><path class="cls-5" d="M22.19,49.62V34.14h54V74.74a2.37,2.37,0,0,1-2.29,2.45H24.48a2.37,2.37,0,0,1-2.29-2.45V59"/><path class="cls-7" d="M20.6,34.14s-2.12,6.8,3.18,6.8S28,34.14,28,34.14Z"/><path class="cls-7" d="M29.07,34.71S27,41.5,32.25,41.5s4.24-6.8,4.24-6.8Z"/><path class="cls-7" d="M37.55,34.71s-2.12,6.8,3.18,6.8S45,34.71,45,34.71Z"/><path class="cls-7" d="M46,34.71s-2.12,6.8,3.18,6.8,4.24-6.8,4.24-6.8Z"/><path class="cls-7" d="M54.5,34.71s-2.12,6.8,3.18,6.8,4.24-6.8,4.24-6.8Z"/><path class="cls-7" d="M63,34.71s-2.12,6.8,3.18,6.8,4.24-6.8,4.24-6.8Z"/><path class="cls-7" d="M71.46,34.71s-2.12,6.8,3.18,6.8,4.24-6.8,4.24-6.8Z"/><path class="cls-8" d="M20.6,34.14s-2.12,6.8,3.18,6.8S28,34.14,28,34.14Z"/><path class="cls-8" d="M29.07,34.14s-2.12,6.8,3.18,6.8,4.24-6.8,4.24-6.8Z"/><path class="cls-8" d="M37.55,34.14s-2.12,6.8,3.18,6.8S45,34.14,45,34.14Z"/><path class="cls-9" d="M39.08,55.1h1.17A5.77,5.77,0,0,1,46,60.87V76.62a0,0,0,0,1,0,0H33.31a0,0,0,0,1,0,0V60.87A5.77,5.77,0,0,1,39.08,55.1Z"/><path class="cls-8" d="M38,55.1H39.2A5.77,5.77,0,0,1,45,60.87V76.62a0,0,0,0,1,0,0H32.25a0,0,0,0,1,0,0V60.87A5.77,5.77,0,0,1,38,55.1Z"/><path class="cls-8" d="M46,34.14s-2.12,6.8,3.18,6.8,4.24-6.8,4.24-6.8Z"/><path class="cls-8" d="M54.5,34.14s-2.12,6.8,3.18,6.8,4.24-6.8,4.24-6.8Z"/><path class="cls-8" d="M63,34.14s-2.12,6.8,3.18,6.8,4.24-6.8,4.24-6.8Z"/><path class="cls-8" d="M71.46,34.14s-2.12,6.8,3.18,6.8,4.24-6.8,4.24-6.8Z"/><ellipse class="cls-10" cx="73.57" cy="29.04" rx="1.59" ry="1.7"/></g></g></svg>