<svg xmlns="http://www.w3.org/2000/svg" viewBox="0 0 100 100"><defs><style>.cls-1{fill:#f3cfd7;}.cls-2{fill:#9b7b7e;}.cls-3{fill:#fde29f;}.cls-4{fill:#eda761;}.cls-5{fill:#fff;}</style></defs><title>亲子中心</title><g id="图层_2" data-name="图层 2"><g id="图层_1-2" data-name="图层 1"><path class="cls-1" d="M50,99.5A49.5,49.5,0,1,1,99.5,50,49.56,49.56,0,0,1,50,99.5Z"/><path class="cls-2" d="M50,1A49,49,0,1,1,1,50,49.06,49.06,0,0,1,50,1m0-1a50,50,0,1,0,50,50A50,50,0,0,0,50,0Z"/><path class="cls-3" d="M21.41,39.44a8.4,8.4,0,0,1,12.5-11.23l32.93,43-5.1,4.61Z"/><path class="cls-2" d="M27.68,25.94h0a7.92,7.92,0,0,1,5.84,2.58L66.17,71.19l-4.42,4-40-36.08a7.9,7.9,0,0,1,5.89-13.16m0-1a8.87,8.87,0,0,0-6,2.3h0a8.9,8.9,0,0,0-.64,12.57L61.75,76.53l5.78-5.22L34.29,27.88a8.88,8.88,0,0,0-6.61-2.93Z"/><path class="cls-4" d="M56.44,70,22.34,38.84a7.43,7.43,0,0,1,.53-10.49h0a7.43,7.43,0,0,1,10.49.53l27.76,36.6"/><path class="cls-3" d="M68.66,81.44a2.86,2.86,0,0,1-2.76-2.21A2.84,2.84,0,0,1,68,75.83a2.86,2.86,0,0,1,.63-.07,2.84,2.84,0,0,1,.62,5.61A2.86,2.86,0,0,1,68.66,81.44Z"/><path class="cls-2" d="M68.67,76.26h0a2.34,2.34,0,1,1-.52.06,2.35,2.35,0,0,1,.52-.06m0-1a3.34,3.34,0,1,0,3.25,2.6,3.35,3.35,0,0,0-3.25-2.6Z"/><path class="cls-4" d="M51.74,36q-.45,0-.89,0a11.75,11.75,0,0,1-9-17.94,11.34,11.34,0,0,1,1.94-2.35A11.79,11.79,0,0,1,49.2,12.8a9.91,9.91,0,0,1,1.58-.24l1.17-.05a11.43,11.43,0,0,1,3.36.55,11.78,11.78,0,0,1,2.78,1.29,11.73,11.73,0,0,1-.41,20.06c-.24.14-.49.27-.74.4a8.79,8.79,0,0,1-1,.42,10.35,10.35,0,0,1-1.56.47A12,12,0,0,1,51.74,36Z"/><path class="cls-2" d="M52,13a10.93,10.93,0,0,1,3.19.52,11.25,11.25,0,0,1,2.66,1.23A11.23,11.23,0,0,1,57.41,34c-.24.14-.47.26-.71.38a8.3,8.3,0,0,1-.88.38h0l-.07,0a9.34,9.34,0,0,1-1.45.44,11.48,11.48,0,0,1-2.53.29c-.28,0-.57,0-.85,0a11.25,11.25,0,0,1-8.63-17.18A10.88,10.88,0,0,1,44.12,16a11.27,11.27,0,0,1,5.19-2.75,9.31,9.31,0,0,1,1.48-.23l1.12,0H52m-.09-1h0l-1.12,0a10.34,10.34,0,0,0-1.65.25,12.24,12.24,0,0,0-5.65,3,11.88,11.88,0,0,0-2,2.45,12.26,12.26,0,0,0,9.4,18.7q.46,0,.93,0a12.47,12.47,0,0,0,2.75-.31,10.35,10.35,0,0,0,1.6-.49h0a9.32,9.32,0,0,0,1-.44c.27-.13.52-.27.77-.41a12.23,12.23,0,0,0-2.46-22.26A11.94,11.94,0,0,0,51.88,12Z"/><path class="cls-5" d="M51.74,36q-.45,0-.89,0a11.65,11.65,0,0,1-5.61-2A9.5,9.5,0,0,1,61.9,30.21a11.59,11.59,0,0,1-4.23,4.19c-.24.14-.49.28-.74.4a8.79,8.79,0,0,1-1,.42,10.35,10.35,0,0,1-1.56.47A12,12,0,0,1,51.74,36Z"/><path class="cls-2" d="M54.51,27.16h0a9,9,0,0,1,6.78,3.09A11.1,11.1,0,0,1,57.41,34c-.24.14-.47.26-.71.38a8.3,8.3,0,0,1-.88.38h0l-.07,0a9.33,9.33,0,0,1-1.45.44,11.48,11.48,0,0,1-2.53.29c-.28,0-.57,0-.85,0a11.13,11.13,0,0,1-5.08-1.69,9,9,0,0,1,8.69-6.6m0-1a10,10,0,0,0-9.82,8,12.14,12.14,0,0,0,6.13,2.25q.46,0,.93,0a12.47,12.47,0,0,0,2.75-.31,10.35,10.35,0,0,0,1.6-.49h0a9.32,9.32,0,0,0,1-.44c.27-.13.52-.27.77-.41a12.13,12.13,0,0,0,4.58-4.66,10,10,0,0,0-8-4Z"/><path class="cls-5" d="M48.35,19.68a10.68,10.68,0,0,1-6.26-2,11.29,11.29,0,0,1,1.69-2A11.79,11.79,0,0,1,49.2,12.8a9.92,9.92,0,0,1,1.58-.24l1.17-.05a11.43,11.43,0,0,1,3.36.55,11.71,11.71,0,0,1,2.39,1.05,10.55,10.55,0,0,1-7,5.31A10.72,10.72,0,0,1,48.35,19.68Z"/><path class="cls-2" d="M52,13a10.93,10.93,0,0,1,3.19.52A11.09,11.09,0,0,1,57,14.3a10.05,10.05,0,0,1-6.42,4.63,10.1,10.1,0,0,1-7.8-1.42A10.87,10.87,0,0,1,44.12,16a11.27,11.27,0,0,1,5.19-2.75,9.31,9.31,0,0,1,1.48-.23l1.12,0H52m-.09-1h0l-1.12,0a10.34,10.34,0,0,0-1.65.25,12.24,12.24,0,0,0-5.65,3,11.88,11.88,0,0,0-2,2.45,11.12,11.12,0,0,0,16.94-3.83,12.24,12.24,0,0,0-2.89-1.34A11.94,11.94,0,0,0,51.88,12Z"/></g></g></svg>