<svg xmlns="http://www.w3.org/2000/svg" viewBox="0 0 100 100"><defs><style>.cls-1{fill:#7fdbe2;}.cls-2{fill:#9b7b7e;}.cls-3{fill:none;stroke:#9a7b7e;stroke-linecap:round;stroke-miterlimit:10;}.cls-4{fill:#ffbb5e;}.cls-5{fill:#fff;}</style></defs><title>在线课程</title><g id="图层_2" data-name="图层 2"><g id="图层_1-2" data-name="图层 1"><path class="cls-1" d="M50,99.5A49.5,49.5,0,1,1,99.5,50,49.56,49.56,0,0,1,50,99.5Z"/><path class="cls-2" d="M50,1A49,49,0,1,1,1,50,49.06,49.06,0,0,1,50,1m0-1a50,50,0,1,0,50,50A50,50,0,0,0,50,0Z"/><line class="cls-3" x1="23.5" y1="50.31" x2="23.5" y2="44.98"/><rect class="cls-4" x="19.72" y="22.54" width="62.18" height="48.19" rx="2" ry="2"/><path class="cls-3" d="M17.64,37V23.8a2.2,2.2,0,0,1,2.07-2.3h58a2.2,2.2,0,0,1,2.07,2.3V66.35a2.2,2.2,0,0,1-2.07,2.3h-58a2.2,2.2,0,0,1-2.07-2.3V52.55"/><line class="cls-3" x1="17.64" y1="46" x2="17.64" y2="41.83"/><path class="cls-5" d="M41,56.66v-20a1.16,1.16,0,0,1,1.75-1l17.36,10a1.16,1.16,0,0,1,0,2l-17.36,10A1.16,1.16,0,0,1,41,56.66Z"/><polyline class="cls-3" points="50.14 52.17 49.31 52.66 48.73 52.99 47.92 53.46"/><path class="cls-3" d="M45.78,54.69l-1.19.69-4,2.28a1.16,1.16,0,0,1-1.75-1v-20a1.16,1.16,0,0,1,1.75-1L58,45.62a1.16,1.16,0,0,1,0,2l-5.45,3.15-1,.57"/><line class="cls-3" x1="69.85" y1="78.5" x2="82.36" y2="78.5"/><line class="cls-3" x1="17.64" y1="78.5" x2="65.32" y2="78.5"/></g></g></svg>