<svg xmlns="http://www.w3.org/2000/svg" viewBox="0 0 100 100"><defs><style>.cls-1{fill:#b2e8ef;}.cls-2{fill:#9b7b7e;}.cls-3{fill:#eda761;}.cls-3,.cls-4,.cls-6{stroke:#9b7b7e;}.cls-10,.cls-11,.cls-3,.cls-4,.cls-6{stroke-miterlimit:10;}.cls-10,.cls-11,.cls-4,.cls-6{fill:none;}.cls-5{fill:#fff;}.cls-11,.cls-6{stroke-linecap:round;}.cls-7{fill:#ffe443;}.cls-8{fill:#05b8e2;}.cls-9{fill:#daefce;}.cls-10,.cls-11{stroke:#fff;stroke-width:0.2px;}</style></defs><title>学习中心</title><g id="图层_2" data-name="图层 2"><g id="图层_1-2" data-name="图层 1"><path class="cls-1" d="M50,99.5A49.5,49.5,0,1,1,99.5,50,49.56,49.56,0,0,1,50,99.5Z"/><path class="cls-2" d="M50,1A49,49,0,1,1,1,50,49.06,49.06,0,0,1,50,1m0-1a50,50,0,1,0,50,50A50,50,0,0,0,50,0Z"/><rect class="cls-3" x="20.55" y="21.5" width="58.78" height="24.94"/><path class="cls-4" d="M48.6,50.45"/><path class="cls-4" d="M48.6,31.3"/><path class="cls-4" d="M58.4,36.2"/><path class="cls-5" d="M35.3,26.22s.32,3.64.32,3.88c0,.88.16,3.31-1,3.42-.32,0-.43.51-.08.59l1.9.44c.38.09.54-.49.16-.58l-1.9-.44-.08.59.77-.07a.31.31,0,0,0,.29-.22c.32-1.07,1.16-9.06-.7-8.12-.34.17,0,.69.3.52Z"/><path class="cls-5" d="M41.13,29.59q1.64,0,3.27,0c.38,0,.39-.61,0-.6q-1.64.06-3.27,0a.3.3,0,0,0,0,.6Z"/><path class="cls-5" d="M42.64,26.91l.08,5.75a.3.3,0,0,0,.6,0l-.08-5.75a.3.3,0,0,0-.6,0Z"/><path class="cls-5" d="M48.86,25.55c1.45,0,1.07,3.24,1.14,4.15,0,.32.51,3.92,0,3.86v.6l1.12,0a.3.3,0,0,0,0-.6l-1.12,0a.3.3,0,0,0,0,.6c.6.06.8-.2,1-.76.29-1.09-.26-2.9-.34-4C50.48,28,51,25,48.86,24.95a.3.3,0,0,0,0,.6Z"/><path class="cls-5" d="M54.35,28.63a31.76,31.76,0,0,1,3.27-.09.3.3,0,0,0,0-.6,31.76,31.76,0,0,0-3.27.09c-.38,0-.39.63,0,.6Z"/><path class="cls-5" d="M54.08,31.81h4.77a.3.3,0,0,0,0-.6H54.08a.3.3,0,0,0,0,.6Z"/><path class="cls-5" d="M61.51,26.9a2.7,2.7,0,0,1,2.12.4,3.06,3.06,0,0,1,.59,2.2c-.08,1.77-1.4,2.37-2.88,2.82a.3.3,0,0,0,.08.59q2.72.14,5.44.07a.3.3,0,0,0,0-.6q-2.72.06-5.44-.07l.08.59c2-.61,3.44-1.54,3.31-3.81-.11-2.06-1.26-3-3.31-2.79-.38,0-.38.64,0,.6Z"/><line class="cls-6" x1="62.65" y1="40.23" x2="60.32" y2="37.62"/><path class="cls-6" d="M57.27,34.21l-8.16-9.14-24.22,28L40.55,74H60c14-20.48,6-8.91,14.11-21l-9.55-10.7"/><path class="cls-7" d="M49.13,26.84l-22.46,26L41.2,72.27h18c13-19,5.55-8.26,13.08-19.47Z"/><rect class="cls-8" x="35.74" y="73.66" width="28.39" height="4.34"/><path class="cls-2" d="M63.63,74.16V77.5H36.24V74.16H63.63m1-1H35.24V78.5H64.63V73.16Z"/><rect class="cls-2" x="48.6" y="26.4" width="1.34" height="15.14"/><rect class="cls-2" x="48.6" y="43.32" width="1.34" height="4.01" rx="0.67" ry="0.67"/><circle class="cls-9" cx="49.49" cy="52.23" r="1.73"/><path class="cls-2" d="M49.49,51a1.23,1.23,0,1,1-1.23,1.23A1.23,1.23,0,0,1,49.49,51m0-1a2.23,2.23,0,1,0,2.23,2.23A2.23,2.23,0,0,0,49.49,50Z"/><path class="cls-5" d="M74.88,33.84c.13,0-.19.57-.15.51-.12.15-.12.47.13.5a4.21,4.21,0,0,0,.87,0c.38,0,.39-.62,0-.6a3.45,3.45,0,0,1-.71,0l.13.5a1.23,1.23,0,0,0,.31-1.07.59.59,0,0,0-.75-.44.3.3,0,0,0,.16.58Z"/><path class="cls-5" d="M71.52,35.41l2.14.14c.39,0,.38-.58,0-.6l-2.14-.14c-.39,0-.38.58,0,.6Z"/><path class="cls-5" d="M72.26,33.93a7.71,7.71,0,0,1,0,2.33c-.05.38.53.54.58.16a8.67,8.67,0,0,0,0-2.65c-.06-.38-.64-.22-.58.16Z"/><path class="cls-5" d="M74.91,35.75c.24-.11.43.31.37.47a.79.79,0,0,1-.42.36c-.28.14-.13.55.15.56.5,0,1,0,1.5,0s.39-.61,0-.6-1,0-1.5,0l.15.56c.44-.22.94-.75.77-1.29a1.05,1.05,0,0,0-1.32-.58c-.35.16,0,.67.3.52Z"/><path class="cls-5" d="M71.41,38.31q4-.26,8-.17a.3.3,0,0,0,0-.6q-4-.1-8,.17c-.38,0-.39.63,0,.6Z"/><path class="cls-5" d="M74.77,38.28c-.61,1.84,1.53,2.18,2.87,1.86.38-.09.22-.67-.16-.58a3.06,3.06,0,0,1-1.42.06,1.67,1.67,0,0,1-.56-.23c-.36-.26-.28-.59-.16-1s-.46-.53-.58-.16Z"/><path class="cls-5" d="M75.88,38.79l0,1.85a.3.3,0,0,0,.6,0l0-1.85a.3.3,0,0,0-.6,0Z"/><path class="cls-10" d="M30,36.18l-3.26-1.44L25.33,38Z"/><rect class="cls-10" x="24.11" y="39.76" width="6.23" height="1.78"/><rect class="cls-8" x="72.2" y="43.32" width="6.23" height="2.67"/><line class="cls-11" x1="25.03" y1="39.76" x2="25.03" y2="40.65"/><line class="cls-11" x1="25.92" y1="39.76" x2="25.92" y2="40.65"/><line class="cls-11" x1="26.81" y1="39.76" x2="26.81" y2="40.65"/><line class="cls-11" x1="27.7" y1="39.76" x2="27.7" y2="40.65"/><line class="cls-11" x1="28.59" y1="39.76" x2="28.59" y2="40.65"/><line class="cls-11" x1="29.49" y1="39.76" x2="29.49" y2="40.65"/></g></g></svg>