<svg xmlns="http://www.w3.org/2000/svg" viewBox="0 0 100 100"><defs><style>.cls-1,.cls-5,.cls-8{fill:none;}.cls-1{stroke:#fff;}.cls-1,.cls-8{stroke-miterlimit:10;}.cls-2{fill:#d0f7b7;}.cls-3{fill:#9b7b7e;}.cls-4{fill:#ffa340;}.cls-5{stroke:#9a7b7e;stroke-linejoin:round;}.cls-5,.cls-8{stroke-linecap:round;}.cls-6{fill:#fff8cb;}.cls-7{fill:#9a7b7e;}.cls-8{stroke:#fff8cb;}</style></defs><title>公开课</title><g id="图层_2" data-name="图层 2"><g id="图层_1-2" data-name="图层 1"><path class="cls-1" d="M50.25,50"/><path class="cls-1" d="M49.75,50"/><path class="cls-2" d="M50,99.5A49.5,49.5,0,1,1,99.5,50,49.56,49.56,0,0,1,50,99.5Z"/><path class="cls-3" d="M50,1A49,49,0,1,1,1,50,49.06,49.06,0,0,1,50,1m0-1a50,50,0,1,0,50,50A50,50,0,0,0,50,0Z"/><path class="cls-4" d="M74.93,75.71h-19a.84.84,0,0,0-.63.29l-3.25,3.7a.84.84,0,0,1-1.27,0L47.64,76a.84.84,0,0,0-.64-.3H27.9A4.63,4.63,0,0,1,23.33,71V26.58A4.63,4.63,0,0,1,27.9,21.9H44.62a.84.84,0,0,1,.6.25l5.57,5.71a.83.83,0,0,0,1.23,0l5-5.65a.84.84,0,0,1,.63-.28H74.93a4.63,4.63,0,0,1,4.57,4.68V71A4.63,4.63,0,0,1,74.93,75.71Z"/><path class="cls-5" d="M20.5,44V24.69A4.68,4.68,0,0,1,25.18,20H42.32a.87.87,0,0,1,.62.25L48.65,26a.87.87,0,0,0,1.26,0l5.15-5.65a.87.87,0,0,1,.64-.28H73.4a4.68,4.68,0,0,1,4.68,4.68V69.14a4.68,4.68,0,0,1-4.68,4.68H53.93a.87.87,0,0,0-.65.29l-3.33,3.7a.87.87,0,0,1-1.3,0l-3.22-3.68a.87.87,0,0,0-.65-.3H25.18a4.68,4.68,0,0,1-4.68-4.68V56.83"/><polyline class="cls-5" points="20.5 52.46 20.5 50.22 20.5 47.86"/><circle class="cls-6" cx="51.18" cy="40.31" r="4.72"/><path class="cls-7" d="M49.29,36.59a3.72,3.72,0,1,1-3.72,3.72,3.72,3.72,0,0,1,3.72-3.72m0-1A4.72,4.72,0,1,0,54,40.31a4.72,4.72,0,0,0-4.72-4.72Z"/><line class="cls-8" x1="59.2" y1="49.28" x2="65.81" y2="37"/><line class="cls-6" x1="59.2" y1="49.28" x2="65.81" y2="37"/><path class="cls-6" d="M59.63,62H42.73a1.93,1.93,0,0,1-1.93-1.93V54.36a6.5,6.5,0,0,1,6.5-6.5h7.77a6.5,6.5,0,0,1,6.5,6.5v5.73A1.93,1.93,0,0,1,59.63,62Z"/><line class="cls-5" x1="58.26" y1="49.28" x2="64.87" y2="37"/><polyline class="cls-5" points="38.91 55.68 38.91 55.62 38.91 54.65"/><path class="cls-5" d="M38.91,53.05A6.17,6.17,0,0,1,39,51.91a6.14,6.14,0,0,1,6-5h8.49a6.14,6.14,0,0,1,6.14,6.14v6.2a1.82,1.82,0,0,1-1.82,1.82H40.73a1.82,1.82,0,0,1-1.82-1.82v-1.6"/></g></g></svg>