<svg xmlns="http://www.w3.org/2000/svg" viewBox="0 0 100 100"><defs><style>.cls-1,.cls-5,.cls-7{fill:none;stroke-miterlimit:10;}.cls-1{stroke:#fff;}.cls-2{fill:#f7cf77;}.cls-3{fill:#9b7b7e;}.cls-4{fill:#f9a346;}.cls-5,.cls-7{stroke:#9a7b7e;stroke-linecap:round;}.cls-6{fill:#ffdf00;}.cls-7{stroke-width:2px;}</style></defs><title>优惠券</title><g id="图层_2" data-name="图层 2"><g id="图层_1-2" data-name="图层 1"><path class="cls-1" d="M48.59,51.74"/><path class="cls-1" d="M48.09,51.74"/><path class="cls-2" d="M50,99.5A49.5,49.5,0,1,1,99.5,50,49.56,49.56,0,0,1,50,99.5Z"/><path class="cls-3" d="M50,1A49,49,0,1,1,1,50,49.06,49.06,0,0,1,50,1m0-1a50,50,0,1,0,50,50A50,50,0,0,0,50,0Z"/><rect class="cls-4" x="29.61" y="30.56" width="38.51" height="14.65" rx="1.84" ry="1.84" transform="translate(47.27 -23.92) rotate(50.74)"/><rect class="cls-5" x="28.1" y="31.41" width="38.51" height="14.65" rx="1.84" ry="1.84" transform="translate(47.37 -22.44) rotate(50.74)"/><rect class="cls-4" x="22.53" y="35.19" width="38.51" height="14.65" rx="1.84" ry="1.84" transform="translate(33.18 -16.47) rotate(36.21)"/><path class="cls-5" d="M25.4,41.71l-3.27-2.4a1.8,1.8,0,0,1-.39-2.52l6.52-8.91a1.8,1.8,0,0,1,2.52-.39L42.33,36l1,.71,1,.72.94.69,13.7,10a1.8,1.8,0,0,1,.39,2.52l-6.52,8.91a1.8,1.8,0,0,1-2.52.39L29.71,44.87l-1-.71"/><path class="cls-6" d="M79.87,70.88a7.83,7.83,0,1,1,0-15.67l.49,0v-8.1a2,2,0,0,0-2-2H23.56a2,2,0,0,0-2,2v8.1l.49,0a7.83,7.83,0,0,1,0,15.67l-.49,0V79a2,2,0,0,0,2,2H78.4a2,2,0,0,0,2-2v-8.1Z"/><polyline class="cls-5" points="38.98 43.21 37.76 43.21 37.03 43.21"/><path class="cls-5" d="M34.7,43.21H21.6a2,2,0,0,0-2,2v8.1l.49,0a7.83,7.83,0,0,1,0,15.67l-.49,0V77a2,2,0,0,0,2,2H76.44a2,2,0,0,0,2-2v-8.1l-.49,0a7.83,7.83,0,1,1,0-15.67l.49,0v-8.1a2,2,0,0,0-2-2H41.56"/><line class="cls-7" x1="50" y1="59.37" x2="62.73" y2="59.37"/><line class="cls-7" x1="50" y1="64.76" x2="62.73" y2="64.76"/><line class="cls-7" x1="56.36" y1="59.86" x2="56.36" y2="73.57"/><polyline class="cls-7" points="51.19 53.21 56.45 58.39 61.75 52.66"/><line class="cls-5" x1="37.76" y1="48.11" x2="37.76" y2="50.07"/><line class="cls-5" x1="37.76" y1="54.96" x2="37.76" y2="56.92"/><line class="cls-5" x1="37.76" y1="61.82" x2="37.76" y2="63.78"/><line class="cls-5" x1="37.76" y1="68.67" x2="37.76" y2="70.63"/><line class="cls-5" x1="37.76" y1="75.53" x2="37.76" y2="77.49"/></g></g></svg>