<svg xmlns="http://www.w3.org/2000/svg" viewBox="0 0 100 100"><defs><style>.cls-1{fill:#fff;}.cls-2{fill:#f4b9f9;}.cls-3{fill:#9b7b7e;}.cls-4{fill:#eda761;}.cls-5,.cls-8{fill:none;stroke:#9b7b7e;stroke-miterlimit:10;}.cls-5{stroke-linecap:round;}.cls-6{fill:#fde29f;}.cls-7{fill:#05b8e2;}.cls-9{fill:#ffe443;}</style></defs><title>集团公告</title><g id="图层_2" data-name="图层 2"><g id="图层_1-2" data-name="图层 1"><rect class="cls-1" x="26.29" y="62.94" width="32.5" height="2.1" rx="1" ry="1"/><path class="cls-2" d="M50,99.5A49.5,49.5,0,1,1,99.5,50,49.56,49.56,0,0,1,50,99.5Z"/><path class="cls-3" d="M50,1A49,49,0,1,1,1,50,49.06,49.06,0,0,1,50,1m0-1a50,50,0,1,0,50,50A50,50,0,0,0,50,0Z"/><rect class="cls-4" x="18.32" y="37.78" width="65.63" height="43.42" rx="5.31" ry="5.31"/><rect class="cls-1" x="26.29" y="55.6" width="29.36" height="2.1" rx="1" ry="1"/><path class="cls-5" d="M15.43,41.77A5.57,5.57,0,0,1,21,36.21H78a5.57,5.57,0,0,1,5.57,5.57V75.72A5.57,5.57,0,0,1,78,81.29H21a5.57,5.57,0,0,1-5.57-5.57V56"/><path class="cls-6" d="M82.33,55.93a3.6,3.6,0,0,1,2.19-.74,3.54,3.54,0,0,1,2.52,1A3.6,3.6,0,0,1,87.32,61Z"/><path class="cls-3" d="M84.51,55.7h0a3,3,0,0,1,2.17.9,3.09,3.09,0,0,1,.55,3.56L83.12,56a3.1,3.1,0,0,1,1.39-.33m0-1a4.13,4.13,0,0,0-2.92,1.21l5.75,5.78a4.09,4.09,0,0,0,0-5.79,4,4,0,0,0-2.88-1.19Z"/><path class="cls-3" d="M80.79,58.12l4.34,4.36L68.47,79.06l-3.84-.52-.5-3.84L80.79,58.12m0-1.41L63.08,74.34l.66,5.09,5.09.69L86.55,62.48,80.8,56.7Z"/><polygon class="cls-7" points="65.49 74.06 65.84 78.38 70.16 78.75 86.04 62.95 81.37 58.26 65.49 74.06"/><polyline class="cls-8" points="19.91 36.31 49.83 16.29 78.44 36.31"/><circle class="cls-9" cx="49.5" cy="19.95" r="4.74"/><path class="cls-3" d="M49.5,15.71A4.24,4.24,0,1,1,45.26,20a4.25,4.25,0,0,1,4.24-4.24m0-1A5.24,5.24,0,1,0,54.75,20a5.24,5.24,0,0,0-5.24-5.24Z"/><circle class="cls-3" cx="49.5" cy="19.95" r="2.1"/><rect class="cls-1" x="25.76" y="45.64" width="27.26" height="2.1" rx="1" ry="1"/><line class="cls-5" x1="15.43" y1="51.32" x2="15.43" y2="47.21"/></g></g></svg>