<svg xmlns="http://www.w3.org/2000/svg" viewBox="0 0 100 100"><defs><style>.cls-1{fill:#fdeaec;}.cls-2{fill:#9b7b7e;}.cls-3{fill:#eda761;}.cls-4,.cls-5{fill:none;}.cls-4{stroke:#fff;stroke-width:2px;}.cls-4,.cls-5,.cls-7{stroke-linecap:round;stroke-miterlimit:10;}.cls-5,.cls-7{stroke:#9b7b7e;}.cls-6,.cls-7{fill:#ffe443;}</style></defs><title>活动报名</title><g id="图层_2" data-name="图层 2"><g id="图层_1-2" data-name="图层 1"><path class="cls-1" d="M50,99.5A49.5,49.5,0,1,1,99.5,50,49.56,49.56,0,0,1,50,99.5Z"/><path class="cls-2" d="M50,1A49,49,0,1,1,1,50,49.06,49.06,0,0,1,50,1m0-1a50,50,0,1,0,50,50A50,50,0,0,0,50,0Z"/><rect class="cls-3" x="20.35" y="29.15" width="61.15" height="52.15" rx="6.17" ry="6.17"/><line class="cls-4" x1="33.25" y1="39.47" x2="64.78" y2="69.09"/><line class="cls-4" x1="43.28" y1="48.54" x2="57.61" y2="38.03"/><line class="cls-4" x1="52.84" y1="59.05" x2="32.77" y2="70.52"/><line class="cls-5" x1="18.5" y1="47.99" x2="18.5" y2="43.86"/><path class="cls-5" d="M18.5,36.45V33.94a5.71,5.71,0,0,1,5.71-5.71H75.79a5.71,5.71,0,0,1,5.71,5.71V76.25A5.71,5.71,0,0,1,75.79,82H24.21a5.71,5.71,0,0,1-5.71-5.71V53.55"/><path class="cls-6" d="M65.29,50a11,11,0,0,1-3.43-.43,11,11,0,0,1,3.43-.43,11,11,0,0,1,3.43.43A11,11,0,0,1,65.29,50Z"/><path class="cls-2" d="M65.29,48.61c-2.3,0-4.17.41-4.17.93s1.87.93,4.17.93,4.17-.41,4.17-.93-1.87-.93-4.17-.93Z"/><path class="cls-6" d="M55.11,32.26a7.2,7.2,0,0,1-.21-7.41,12.47,12.47,0,0,1,22.41,1.46,5.61,5.61,0,0,1-.53,5.22L65.42,48.62Z"/><path class="cls-2" d="M65.75,19A11.93,11.93,0,0,1,76.84,26.5a5.11,5.11,0,0,1-.48,4.76L65.43,47.7,55.53,32a6.7,6.7,0,0,1-.2-6.89A12,12,0,0,1,65.75,19m0-1a13,13,0,0,0-11.28,6.57,7.72,7.72,0,0,0,.22,7.92l10.72,17L77.19,31.81a6.12,6.12,0,0,0,.58-5.69,13,13,0,0,0-12-8.09Z"/><path class="cls-7" d="M68.07,21.28s4.63.93,5.56,4.63"/></g></g></svg>